ISO-10303-21;
HEADER;
FILE_DESCRIPTION (( 'STEP AP214' ),
    '1' );
FILE_NAME ('0001.STEP',
    '2025-08-24T23:59:04',
    ( '' ),
    ( '' ),
    'SwSTEP 2.0',
    'SolidWorks 2025',
    '' );
FILE_SCHEMA (( 'AUTOMOTIVE_DESIGN' ));
ENDSEC;

DATA;
#1 = EDGE_LOOP ( 'NONE', ( #297, #236 ) ) ;
#2 = EDGE_CURVE ( 'NONE', #706, #273, #1036, .T. ) ;
#3 = ORIENTED_EDGE ( 'NONE', *, *, #469, .F. ) ;
#4 = CARTESIAN_POINT ( 'NONE',  ( -40.00000000000000711, 12.74670786120513100, -2.000000000000001776 ) ) ;
#5 = DIRECTION ( 'NONE',  ( 0.000000000000000000, 0.000000000000000000, -1.000000000000000000 ) ) ;
#6 = DIRECTION ( 'NONE',  ( -1.000000000000000000, -2.938735877055719422E-39, -0.000000000000000000 ) ) ;
#7 = DIRECTION ( 'NONE',  ( -0.000000000000000000, -0.000000000000000000, 1.000000000000000000 ) ) ;
#8 = EDGE_CURVE ( 'NONE', #964, #918, #946, .T. ) ;
#9 = CARTESIAN_POINT ( 'NONE',  ( -25.99999999999999645, 5.000000000000060396, -2.000000000000001776 ) ) ;
#10 = DIRECTION ( 'NONE',  ( 0.000000000000000000, 0.000000000000000000, -1.000000000000000000 ) ) ;
#11 = DIRECTION ( 'NONE',  ( 0.000000000000000000, 0.000000000000000000, -1.000000000000000000 ) ) ;
#12 = DIRECTION ( 'NONE',  ( 1.000000000000000000, 2.938735877055719422E-39, 0.000000000000000000 ) ) ;
#13 = DIRECTION ( 'NONE',  ( 0.000000000000000000, 0.000000000000000000, -1.000000000000000000 ) ) ;
#14 = EDGE_LOOP ( 'NONE', ( #854, #717, #171, #989 ) ) ;
#15 = EDGE_CURVE ( 'NONE', #701, #1076, #609, .T. ) ;
#16 = CIRCLE ( 'NONE', #846, 2.699999999999980194 ) ;
#17 = AXIS2_PLACEMENT_3D ( 'NONE', #868, #106, #446 ) ;
#18 = CARTESIAN_POINT ( 'NONE',  ( 1.000000000000014655, 15.00000000000006928, -3.500000000000169642 ) ) ;
#19 = CARTESIAN_POINT ( 'NONE',  ( -39.00000000000000711, 12.74670786120488053, 2.220446049250313081E-13 ) ) ;
#20 = EDGE_LOOP ( 'NONE', ( #730, #1013 ) ) ;
#21 = DIRECTION ( 'NONE',  ( 0.000000000000000000, 0.000000000000000000, -1.000000000000000000 ) ) ;
#22 = DIRECTION ( 'NONE',  ( 0.000000000000000000, 0.000000000000000000, -1.000000000000000000 ) ) ;
#23 = LINE ( 'NONE', #627, #847 ) ;
#24 = EDGE_CURVE ( 'NONE', #512, #919, #928, .T. ) ;
#25 = VERTEX_POINT ( 'NONE', #369 ) ;
#26 =( NAMED_UNIT ( * ) PLANE_ANGLE_UNIT ( ) SI_UNIT ( $, .RADIAN. ) );
#27 = VERTEX_POINT ( 'NONE', #771 ) ;
#28 = DIRECTION ( 'NONE',  ( 0.000000000000000000, 0.000000000000000000, -1.000000000000000000 ) ) ;
#29 = FACE_OUTER_BOUND ( 'NONE', #507, .T. ) ;
#30 = CARTESIAN_POINT ( 'NONE',  ( -38.99999999999997868, 0.000000000000000000, 0.000000000000000000 ) ) ;
#31 = ORIENTED_EDGE ( 'NONE', *, *, #15, .F. ) ;
#32 = LINE ( 'NONE', #203, #1092 ) ;
#33 = DIRECTION ( 'NONE',  ( -0.7071067811865490160, -4.156000133564598687E-39, -0.7071067811865460184 ) ) ;
#34 = VECTOR ( 'NONE', #750, 1000.000000000000000 ) ;
#35 = CONICAL_SURFACE ( 'NONE', #91, 2.499999999999995115, 0.7853981633974504994 ) ;
#36 = AXIS2_PLACEMENT_3D ( 'NONE', #1080, #664, #13 ) ;
#37 = ORIENTED_EDGE ( 'NONE', *, *, #675, .T. ) ;
#38 = DIRECTION ( 'NONE',  ( 0.000000000000000000, 0.000000000000000000, 1.000000000000000000 ) ) ;
#39 = EDGE_CURVE ( 'NONE', #273, #443, #782, .T. ) ;
#40 = CARTESIAN_POINT ( 'NONE',  ( 0.000000000000000000, -9.999999999999994671, -1.800000000000023803 ) ) ;
#41 = VERTEX_POINT ( 'NONE', #18 ) ;
#42 = FACE_OUTER_BOUND ( 'NONE', #519, .T. ) ;
#43 = ADVANCED_FACE ( 'NONE', ( #192 ), #358, .F. ) ;
#44 = LINE ( 'NONE', #883, #1039 ) ;
#45 = ORIENTED_EDGE ( 'NONE', *, *, #904, .T. ) ;
#46 = DIRECTION ( 'NONE',  ( 1.000000000000000000, 2.938735877055719422E-39, 0.000000000000000000 ) ) ;
#47 = DIRECTION ( 'NONE',  ( -1.000000000000000000, 0.000000000000000000, 0.000000000000000000 ) ) ;
#48 = ORIENTED_EDGE ( 'NONE', *, *, #2, .F. ) ;
#49 = DIRECTION ( 'NONE',  ( 0.000000000000000000, 0.000000000000000000, -1.000000000000000000 ) ) ;
#50 = EDGE_CURVE ( 'NONE', #1070, #791, #541, .T. ) ;
#51 = VECTOR ( 'NONE', #638, 1000.000000000000000 ) ;
#52 = ORIENTED_EDGE ( 'NONE', *, *, #420, .F. ) ;
#53 = DIRECTION ( 'NONE',  ( -9.130123557772694219E-17, -1.000000000000000000, 2.582794426846665259E-63 ) ) ;
#54 = CONICAL_SURFACE ( 'NONE', #229, 2.499999999999995115, 0.7853981633974504994 ) ;
#55 = CIRCLE ( 'NONE', #867, 5.000000000000000888 ) ;
#56 = DIRECTION ( 'NONE',  ( -1.000000000000000000, 9.130123557772685590E-17, 4.622231866529366047E-33 ) ) ;
#57 = DIRECTION ( 'NONE',  ( 0.000000000000000000, 0.000000000000000000, -1.000000000000000000 ) ) ;
#58 = DIRECTION ( 'NONE',  ( -1.000000000000000000, 0.000000000000000000, 0.000000000000000000 ) ) ;
#59 = EDGE_CURVE ( 'NONE', #791, #632, #1053, .T. ) ;
#60 = FACE_BOUND ( 'NONE', #824, .T. ) ;
#61 = PLANE ( 'NONE',  #183 ) ;
#62 = ORIENTED_EDGE ( 'NONE', *, *, #2, .T. ) ;
#63 = DIRECTION ( 'NONE',  ( 0.000000000000000000, 0.000000000000000000, 1.000000000000000000 ) ) ;
#64 = ORIENTED_EDGE ( 'NONE', *, *, #24, .T. ) ;
#65 = CARTESIAN_POINT ( 'NONE',  ( 35.00000000000000000, -14.99999999999976374, -2.000000000000112799 ) ) ;
#66 = ORIENTED_EDGE ( 'NONE', *, *, #86, .F. ) ;
#67 = VECTOR ( 'NONE', #830, 1000.000000000000000 ) ;
#68 = ORIENTED_EDGE ( 'NONE', *, *, #169, .T. ) ;
#69 = EDGE_CURVE ( 'NONE', #991, #676, #275, .T. ) ;
#70 = AXIS2_PLACEMENT_3D ( 'NONE', #233, #479, #992 ) ;
#71 = CARTESIAN_POINT ( 'NONE',  ( 19.99999999999998934, 13.00000000000023448, -3.500000000000058620 ) ) ;
#72 = DIRECTION ( 'NONE',  ( -4.625929269271492422E-15, 0.000000000000000000, 1.000000000000000000 ) ) ;
#73 = AXIS2_PLACEMENT_3D ( 'NONE', #939, #92, #355 ) ;
#74 = LINE ( 'NONE', #305, #484 ) ;
#75 = ORIENTED_EDGE ( 'NONE', *, *, #298, .F. ) ;
#76 = ORIENTED_EDGE ( 'NONE', *, *, #751, .F. ) ;
#77 = DIRECTION ( 'NONE',  ( -4.625929269271501888E-15, -1.000000000000000000, 1.096345236817342084E-14 ) ) ;
#78 = EDGE_CURVE ( 'NONE', #493, #118, #817, .T. ) ;
#79 = CARTESIAN_POINT ( 'NONE',  ( 0.000000000000000000, -9.999999999999980460, 2.220446049250313081E-13 ) ) ;
#80 = ORIENTED_EDGE ( 'NONE', *, *, #254, .T. ) ;
#81 = ORIENTED_EDGE ( 'NONE', *, *, #324, .F. ) ;
#82 = DIRECTION ( 'NONE',  ( -1.000000000000000000, -2.938735877055719422E-39, -0.000000000000000000 ) ) ;
#83 = PRODUCT_DEFINITION_CONTEXT ( 'detailed design', #278, 'design' ) ;
#84 = CARTESIAN_POINT ( 'NONE',  ( 39.99999999999997868, -19.99999999999996092, 2.220446049250313081E-13 ) ) ;
#85 = PRODUCT_DEFINITION ( 'UNKNOWN', '', #601, #83 ) ;
#86 = EDGE_CURVE ( 'NONE', #310, #292, #533, .T. ) ;
#87 = ORIENTED_EDGE ( 'NONE', *, *, #580, .T. ) ;
#88 = VERTEX_POINT ( 'NONE', #458 ) ;
#89 = DIRECTION ( 'NONE',  ( 0.000000000000000000, 0.000000000000000000, -1.000000000000000000 ) ) ;
#90 = AXIS2_PLACEMENT_3D ( 'NONE', #913, #177, #772 ) ;
#91 = AXIS2_PLACEMENT_3D ( 'NONE', #430, #89, #692 ) ;
#92 = DIRECTION ( 'NONE',  ( 1.000000000000000000, 2.938735877055719422E-39, 0.000000000000000000 ) ) ;
#93 = CIRCLE ( 'NONE', #642, 4.999999999999997335 ) ;
#94 = CIRCLE ( 'NONE', #431, 2.499999999999993783 ) ;
#95 = EDGE_CURVE ( 'NONE', #919, #747, #334, .T. ) ;
#96 = CARTESIAN_POINT ( 'NONE',  ( -19.99999999999998934, 16.50000000000001421, -2.000000000000112799 ) ) ;
#97 = CARTESIAN_POINT ( 'NONE',  ( -28.49999999999998934, 5.000000000000254019, 2.220446049250313081E-13 ) ) ;
#98 = CARTESIAN_POINT ( 'NONE',  ( 39.99999999999997868, -14.99999999999998579, 3.330669073875469621E-13 ) ) ;
#99 = CARTESIAN_POINT ( 'NONE',  ( 35.00000000000000000, -14.99999999999998579, 3.330669073875469621E-13 ) ) ;
#100 = CARTESIAN_POINT ( 'NONE',  ( -23.50000000000000000, 5.000000000000060396, -2.000000000000001776 ) ) ;
#101 = VERTEX_POINT ( 'NONE', #238 ) ;
#102 = FACE_OUTER_BOUND ( 'NONE', #819, .T. ) ;
#103 = ORIENTED_EDGE ( 'NONE', *, *, #972, .T. ) ;
#104 = LINE ( 'NONE', #112, #724 ) ;
#105 = EDGE_LOOP ( 'NONE', ( #835, #317, #472, #422 ) ) ;
#106 = DIRECTION ( 'NONE',  ( -1.000000000000000000, -1.734723475976806601E-16, 5.546678239835239257E-32 ) ) ;
#107 = EDGE_CURVE ( 'NONE', #161, #1009, #933, .T. ) ;
#108 = DIRECTION ( 'NONE',  ( -0.000000000000000000, -0.000000000000000000, -1.000000000000000000 ) ) ;
#109 = VECTOR ( 'NONE', #350, 1000.000000000000000 ) ;
#110 = AXIS2_PLACEMENT_3D ( 'NONE', #744, #320, #903 ) ;
#111 = ORIENTED_EDGE ( 'NONE', *, *, #741, .F. ) ;
#112 = CARTESIAN_POINT ( 'NONE',  ( 19.99999999999998934, 12.50000000000051159, 0.0009999999999177333621 ) ) ;
#113 = ORIENTED_EDGE ( 'NONE', *, *, #980, .T. ) ;
#114 = CARTESIAN_POINT ( 'NONE',  ( -19.99999999999998934, 15.00000000000006928, -3.500000000000169642 ) ) ;
#115 = LINE ( 'NONE', #950, #287 ) ;
#116 = DIRECTION ( 'NONE',  ( -1.000000000000000000, 0.000000000000000000, 0.000000000000000000 ) ) ;
#117 = CARTESIAN_POINT ( 'NONE',  ( 25.99999999999999645, 5.000000000000254019, 2.220446049250313081E-13 ) ) ;
#118 = VERTEX_POINT ( 'NONE', #308 ) ;
#119 = DIRECTION ( 'NONE',  ( 1.000000000000000000, 0.000000000000000000, 0.000000000000000000 ) ) ;
#120 = DIRECTION ( 'NONE',  ( -2.938735877055718117E-39, 1.000000000000000000, 0.000000000000000000 ) ) ;
#121 = ADVANCED_FACE ( 'NONE', ( #242 ), #815, .F. ) ;
#122 = ORIENTED_EDGE ( 'NONE', *, *, #600, .F. ) ;
#123 = CARTESIAN_POINT ( 'NONE',  ( 40.00000000000000711, 12.50000000000003908, 2.220446049250313081E-13 ) ) ;
#124 = CARTESIAN_POINT ( 'NONE',  ( 19.99999999999998934, 12.50000000000003908, 2.220446049250313081E-13 ) ) ;
#125 = VECTOR ( 'NONE', #506, 1000.000000000000000 ) ;
#126 = ADVANCED_FACE ( 'NONE', ( #895 ), #412, .F. ) ;
#127 = CONICAL_SURFACE ( 'NONE', #746, 2.499999999999995115, 0.7853981633974504994 ) ;
#128 = ORIENTED_EDGE ( 'NONE', *, *, #107, .T. ) ;
#129 = CARTESIAN_POINT ( 'NONE',  ( -2.499999999999993783, -9.999999999999758415, -2.000000000000001776 ) ) ;
#130 = DIRECTION ( 'NONE',  ( 1.000000000000000000, 2.938735877055719422E-39, 0.000000000000000000 ) ) ;
#131 = DIRECTION ( 'NONE',  ( 0.000000000000000000, 0.000000000000000000, 1.000000000000000000 ) ) ;
#132 = ORIENTED_EDGE ( 'NONE', *, *, #206, .T. ) ;
#133 = DIRECTION ( 'NONE',  ( -0.000000000000000000, 0.000000000000000000, -1.000000000000000000 ) ) ;
#134 = LINE ( 'NONE', #153, #353 ) ;
#135 = FACE_OUTER_BOUND ( 'NONE', #586, .T. ) ;
#136 = CARTESIAN_POINT ( 'NONE',  ( 35.00000000000000000, -14.99999999999976374, -2.000000000000112799 ) ) ;
#137 = ORIENTED_EDGE ( 'NONE', *, *, #254, .F. ) ;
#138 = FACE_OUTER_BOUND ( 'NONE', #178, .T. ) ;
#139 = DIRECTION ( 'NONE',  ( 0.000000000000000000, 0.000000000000000000, -1.000000000000000000 ) ) ;
#140 = VERTEX_POINT ( 'NONE', #401 ) ;
#141 = DIRECTION ( 'NONE',  ( 1.000000000000000000, 2.938735877055719422E-39, 0.000000000000000000 ) ) ;
#142 = FACE_OUTER_BOUND ( 'NONE', #202, .T. ) ;
#143 = ADVANCED_FACE ( 'NONE', ( #742 ), #650, .F. ) ;
#144 = CARTESIAN_POINT ( 'NONE',  ( -19.99999999999998934, 16.50000000000045830, -3.500000000000058620 ) ) ;
#145 = VECTOR ( 'NONE', #610, 1000.000000000000000 ) ;
#146 = AXIS2_PLACEMENT_3D ( 'NONE', #352, #12, #589 ) ;
#147 = ORIENTED_EDGE ( 'NONE', *, *, #967, .T. ) ;
#148 = LINE ( 'NONE', #722, #764 ) ;
#149 = CIRCLE ( 'NONE', #766, 2.499999999999995115 ) ;
#150 = CARTESIAN_POINT ( 'NONE',  ( 19.99999999999998934, 16.50000000000048672, -3.500000000000058620 ) ) ;
#151 = SURFACE_STYLE_FILL_AREA ( #896 ) ;
#152 = ORIENTED_EDGE ( 'NONE', *, *, #1015, .T. ) ;
#153 = CARTESIAN_POINT ( 'NONE',  ( -40.00000000000000711, 12.74670786120488053, 2.220446049250313081E-13 ) ) ;
#154 = FACE_OUTER_BOUND ( 'NONE', #891, .T. ) ;
#155 = LINE ( 'NONE', #415, #429 ) ;
#156 = ADVANCED_FACE ( 'NONE', ( #223 ), #159, .T. ) ;
#157 = ORIENTED_EDGE ( 'NONE', *, *, #8, .T. ) ;
#158 = ORIENTED_EDGE ( 'NONE', *, *, #779, .T. ) ;
#159 = PLANE ( 'NONE',  #1017 ) ;
#160 = CARTESIAN_POINT ( 'NONE',  ( 0.000000000000000000, -9.999999999999758415, -2.000000000000001776 ) ) ;
#161 = VERTEX_POINT ( 'NONE', #312 ) ;
#162 = ADVANCED_FACE ( 'NONE', ( #976 ), #54, .F. ) ;
#163 = ORIENTED_EDGE ( 'NONE', *, *, #209, .T. ) ;
#164 = DIRECTION ( 'NONE',  ( -1.000000000000000000, -2.938735877055719422E-39, 0.000000000000000000 ) ) ;
#165 = VECTOR ( 'NONE', #387, 1000.000000000000000 ) ;
#166 = ORIENTED_EDGE ( 'NONE', *, *, #715, .T. ) ;
#167 = VERTEX_POINT ( 'NONE', #912 ) ;
#168 = DIRECTION ( 'NONE',  ( -1.000000000000000000, 0.000000000000000000, 0.000000000000000000 ) ) ;
#169 = EDGE_CURVE ( 'NONE', #806, #918, #314, .T. ) ;
#170 = DIRECTION ( 'NONE',  ( -1.000000000000000000, -2.938735877055719422E-39, -0.000000000000000000 ) ) ;
#171 = ORIENTED_EDGE ( 'NONE', *, *, #615, .T. ) ;
#172 = EDGE_LOOP ( 'NONE', ( #790, #244, #644, #62, #929, #322, #52, #64, #459, #210, #426, #866, #321, #759 ) ) ;
#173 = DIRECTION ( 'NONE',  ( 0.000000000000000000, 0.000000000000000000, -1.000000000000000000 ) ) ;
#174 = CARTESIAN_POINT ( 'NONE',  ( -39.00000000000000711, 12.74670786120460342, 0.0009999999998067110596 ) ) ;
#175 = EDGE_CURVE ( 'NONE', #398, #301, #577, .T. ) ;
#176 = DIRECTION ( 'NONE',  ( 1.000000000000000000, -9.130123557772685590E-17, -4.622231866529366047E-33 ) ) ;
#177 = DIRECTION ( 'NONE',  ( 1.000000000000000000, 2.938735877055719422E-39, 0.000000000000000000 ) ) ;
#178 = EDGE_LOOP ( 'NONE', ( #31, #258, #1055, #433, #581, #240, #193, #841, #553, #937, #403, #498, #338, #636 ) ) ;
#179 = PLANE ( 'NONE',  #332 ) ;
#180 = CIRCLE ( 'NONE', #931, 2.499999999999993783 ) ;
#181 = AXIS2_PLACEMENT_3D ( 'NONE', #99, #688, #438 ) ;
#182 = DIRECTION ( 'NONE',  ( -1.000000000000000000, 0.000000000000000000, 0.000000000000000000 ) ) ;
#183 = AXIS2_PLACEMENT_3D ( 'NONE', #491, #915, #810 ) ;
#184 = ORIENTED_EDGE ( 'NONE', *, *, #324, .T. ) ;
#185 = ORIENTED_EDGE ( 'NONE', *, *, #823, .T. ) ;
#186 = CYLINDRICAL_SURFACE ( 'NONE', #710, 5.000000000000000888 ) ;
#187 = DIRECTION ( 'NONE',  ( -1.000000000000000000, -2.938735877055719422E-39, -0.000000000000000000 ) ) ;
#188 = EDGE_CURVE ( 'NONE', #1051, #310, #318, .T. ) ;
#189 = CARTESIAN_POINT ( 'NONE',  ( -40.00000000000000711, 12.74670786120513100, -2.000000000000001776 ) ) ;
#190 = FACE_OUTER_BOUND ( 'NONE', #1038, .T. ) ;
#191 = CARTESIAN_POINT ( 'NONE',  ( 0.000000000000000000, -9.999999999999994671, -1.800000000000023803 ) ) ;
#192 = FACE_OUTER_BOUND ( 'NONE', #758, .T. ) ;
#193 = ORIENTED_EDGE ( 'NONE', *, *, #809, .F. ) ;
#194 = ADVANCED_FACE ( 'NONE', ( #154 ), #984, .F. ) ;
#195 = LINE ( 'NONE', #129, #231 ) ;
#196 = CARTESIAN_POINT ( 'NONE',  ( 23.50000000000000000, 5.000000000000365041, -1.800000000000023803 ) ) ;
#197 = AXIS2_PLACEMENT_3D ( 'NONE', #732, #1067, #983 ) ;
#198 = AXIS2_PLACEMENT_3D ( 'NONE', #942, #865, #439 ) ;
#199 = AXIS2_PLACEMENT_3D ( 'NONE', #1023, #871, #518 ) ;
#200 = CIRCLE ( 'NONE', #818, 2.699999999999980194 ) ;
#201 = DIRECTION ( 'NONE',  ( 0.000000000000000000, 0.000000000000000000, 1.000000000000000000 ) ) ;
#202 = EDGE_LOOP ( 'NONE', ( #911, #351, #333, #230 ) ) ;
#203 = CARTESIAN_POINT ( 'NONE',  ( -19.99999999999998934, 12.50000000000051159, 0.0009999999999177333621 ) ) ;
#204 = CARTESIAN_POINT ( 'NONE',  ( -38.99999999999997868, 16.50000000000034817, 2.220446049250313081E-13 ) ) ;
#205 = ORIENTED_EDGE ( 'NONE', *, *, #729, .T. ) ;
#206 = EDGE_CURVE ( 'NONE', #747, #25, #829, .T. ) ;
#207 = EDGE_LOOP ( 'NONE', ( #794, #690, #614, #877 ) ) ;
#208 = DIRECTION ( 'NONE',  ( 0.7071067811865490160, 8.659560562354952580E-17, -0.7071067811865460184 ) ) ;
#209 = EDGE_CURVE ( 'NONE', #463, #411, #494, .T. ) ;
#210 = ORIENTED_EDGE ( 'NONE', *, *, #840, .F. ) ;
#211 = CARTESIAN_POINT ( 'NONE',  ( 19.99999999999998934, 16.50000000000048672, -3.500000000000058620 ) ) ;
#212 = DIRECTION ( 'NONE',  ( 0.000000000000000000, 0.000000000000000000, -1.000000000000000000 ) ) ;
#213 = STYLED_ITEM ( 'NONE', ( #584 ), #1028 ) ;
#214 = AXIS2_PLACEMENT_3D ( 'NONE', #738, #1068, #141 ) ;
#215 = AXIS2_PLACEMENT_3D ( 'NONE', #211, #637, #545 ) ;
#216 = ADVANCED_FACE ( 'NONE', ( #733 ), #386, .F. ) ;
#217 = CYLINDRICAL_SURFACE ( 'NONE', #215, 1.499999999999994449 ) ;
#218 = DIRECTION ( 'NONE',  ( -1.000000000000000000, -2.938735877055719422E-39, 0.000000000000000000 ) ) ;
#219 = ORIENTED_EDGE ( 'NONE', *, *, #665, .T. ) ;
#220 = ORIENTED_EDGE ( 'NONE', *, *, #886, .T. ) ;
#221 = CARTESIAN_POINT ( 'NONE',  ( 0.000000000000000000, 1.249000902703301108E-13, -2.000000000000001776 ) ) ;
#222 = EDGE_CURVE ( 'NONE', #596, #270, #16, .T. ) ;
#223 = FACE_OUTER_BOUND ( 'NONE', #852, .T. ) ;
#224 = CARTESIAN_POINT ( 'NONE',  ( -38.99999999999997868, 16.50000000000001421, -2.000000000000112799 ) ) ;
#225 = ORIENTED_EDGE ( 'NONE', *, *, #1022, .T. ) ;
#226 = DIRECTION ( 'NONE',  ( 1.000000000000000000, -9.130123557772694219E-17, -9.244463733058732095E-33 ) ) ;
#227 = CARTESIAN_POINT ( 'NONE',  ( 20.99999999999998934, 12.50000000000023270, -2.000000000000001776 ) ) ;
#228 = CARTESIAN_POINT ( 'NONE',  ( 40.00000000000000711, 12.50000000000048317, 0.0009999999999177333621 ) ) ;
#229 = AXIS2_PLACEMENT_3D ( 'NONE', #663, #985, #1062 ) ;
#230 = ORIENTED_EDGE ( 'NONE', *, *, #474, .F. ) ;
#231 = VECTOR ( 'NONE', #21, 1000.000000000000000 ) ;
#232 = AXIS2_PLACEMENT_3D ( 'NONE', #927, #670, #1001 ) ;
#233 = CARTESIAN_POINT ( 'NONE',  ( -25.99999999999999645, 5.000000000000365041, -1.800000000000023803 ) ) ;
#234 = DIRECTION ( 'NONE',  ( 0.000000000000000000, 0.000000000000000000, -1.000000000000000000 ) ) ;
#235 = EDGE_CURVE ( 'NONE', #88, #919, #1084, .T. ) ;
#236 = ORIENTED_EDGE ( 'NONE', *, *, #523, .T. ) ;
#237 = VERTEX_POINT ( 'NONE', #925 ) ;
#238 = CARTESIAN_POINT ( 'NONE',  ( -2.499999999999993783, -9.999999999999994671, -1.800000000000023803 ) ) ;
#239 = ADVANCED_FACE ( 'NONE', ( #760 ), #843, .T. ) ;
#240 = ORIENTED_EDGE ( 'NONE', *, *, #69, .F. ) ;
#241 = EDGE_LOOP ( 'NONE', ( #995, #1019 ) ) ;
#242 = FACE_OUTER_BOUND ( 'NONE', #997, .T. ) ;
#243 = CARTESIAN_POINT ( 'NONE',  ( -40.00000000000000711, 12.74670786120488053, 2.220446049250313081E-13 ) ) ;
#244 = ORIENTED_EDGE ( 'NONE', *, *, #274, .T. ) ;
#245 = ADVANCED_FACE ( 'NONE', ( #102 ), #35, .F. ) ;
#246 =( GEOMETRIC_REPRESENTATION_CONTEXT ( 3 ) GLOBAL_UNCERTAINTY_ASSIGNED_CONTEXT ( ( #669 ) ) GLOBAL_UNIT_ASSIGNED_CONTEXT ( ( #359, #276, #452 ) ) REPRESENTATION_CONTEXT ( 'NONE', 'WORKASPACE' ) );
#247 = ORIENTED_EDGE ( 'NONE', *, *, #680, .F. ) ;
#248 = VECTOR ( 'NONE', #249, 1000.000000000000000 ) ;
#249 = DIRECTION ( 'NONE',  ( -4.625929269271492422E-15, -1.000000000000000000, 1.096345236817342084E-14 ) ) ;
#250 = AXIS2_PLACEMENT_3D ( 'NONE', #144, #579, #49 ) ;
#251 = LINE ( 'NONE', #174, #1093 ) ;
#252 = VERTEX_POINT ( 'NONE', #1006 ) ;
#253 = ORIENTED_EDGE ( 'NONE', *, *, #95, .T. ) ;
#254 = EDGE_CURVE ( 'NONE', #118, #493, #745, .T. ) ;
#255 = DIRECTION ( 'NONE',  ( -0.000000000000000000, -0.000000000000000000, 1.000000000000000000 ) ) ;
#256 = DIRECTION ( 'NONE',  ( 1.000000000000000000, 8.673617379884036705E-17, 0.000000000000000000 ) ) ;
#257 = ADVANCED_BREP_SHAPE_REPRESENTATION ( '0001', ( #1028, #762 ), #246 ) ;
#258 = ORIENTED_EDGE ( 'NONE', *, *, #364, .T. ) ;
#259 = VERTEX_POINT ( 'NONE', #778 ) ;
#260 = DIRECTION ( 'NONE',  ( -1.000000000000000000, 0.000000000000000000, 0.000000000000000000 ) ) ;
#261 = FACE_OUTER_BOUND ( 'NONE', #811, .T. ) ;
#262 = DIRECTION ( 'NONE',  ( 1.000000000000000000, 8.673617379884036705E-17, 0.000000000000000000 ) ) ;
#263 = EDGE_LOOP ( 'NONE', ( #534, #1071, #906, #37 ) ) ;
#264 = DIRECTION ( 'NONE',  ( -1.000000000000000000, -2.938735877055719422E-39, 0.000000000000000000 ) ) ;
#265 = AXIS2_PLACEMENT_3D ( 'NONE', #963, #874, #532 ) ;
#266 = VECTOR ( 'NONE', #1029, 1000.000000000000000 ) ;
#267 = EDGE_CURVE ( 'NONE', #679, #1051, #768, .T. ) ;
#268 = DIRECTION ( 'NONE',  ( 0.000000000000000000, 0.000000000000000000, -1.000000000000000000 ) ) ;
#269 = DIRECTION ( 'NONE',  ( 0.000000000000000000, 0.000000000000000000, -1.000000000000000000 ) ) ;
#270 = VERTEX_POINT ( 'NONE', #1089 ) ;
#271 = CARTESIAN_POINT ( 'NONE',  ( -39.99999999999997868, -14.99999999999976374, -2.000000000000112799 ) ) ;
#272 = DIRECTION ( 'NONE',  ( 1.000000000000000000, 0.000000000000000000, 0.000000000000000000 ) ) ;
#273 = VERTEX_POINT ( 'NONE', #98 ) ;
#274 = EDGE_CURVE ( 'NONE', #292, #252, #672, .T. ) ;
#275 = LINE ( 'NONE', #96, #299 ) ;
#276 =( NAMED_UNIT ( * ) PLANE_ANGLE_UNIT ( ) SI_UNIT ( $, .RADIAN. ) );
#277 = DIRECTION ( 'NONE',  ( 0.000000000000000000, 0.000000000000000000, -1.000000000000000000 ) ) ;
#278 = APPLICATION_CONTEXT ( 'automotive_design' ) ;
#279 = PLANE ( 'NONE',  #284 ) ;
#280 = ORIENTED_EDGE ( 'NONE', *, *, #779, .F. ) ;
#281 = ORIENTED_EDGE ( 'NONE', *, *, #329, .T. ) ;
#282 = LINE ( 'NONE', #957, #624 ) ;
#283 = CARTESIAN_POINT ( 'NONE',  ( -23.50000000000000000, 5.000000000000060396, -1.800000000000023803 ) ) ;
#284 = AXIS2_PLACEMENT_3D ( 'NONE', #538, #218, #63 ) ;
#285 = VECTOR ( 'NONE', #268, 1000.000000000000000 ) ;
#286 = AXIS2_PLACEMENT_3D ( 'NONE', #798, #860, #881 ) ;
#287 = VECTOR ( 'NONE', #373, 1000.000000000000000 ) ;
#288 = ORIENTED_EDGE ( 'NONE', *, *, #86, .T. ) ;
#289 = DIRECTION ( 'NONE',  ( -1.000000000000000000, -5.877471754111437540E-39, 0.000000000000000000 ) ) ;
#290 = EDGE_CURVE ( 'NONE', #140, #632, #346, .T. ) ;
#291 = CARTESIAN_POINT ( 'NONE',  ( 39.99999999999997868, -14.99999999999976374, -2.000000000000112799 ) ) ;
#292 = VERTEX_POINT ( 'NONE', #1010 ) ;
#293 = DIRECTION ( 'NONE',  ( 0.000000000000000000, 0.000000000000000000, -1.000000000000000000 ) ) ;
#294 = DIRECTION ( 'NONE',  ( -1.000000000000000000, 0.000000000000000000, 0.000000000000000000 ) ) ;
#295 = CARTESIAN_POINT ( 'NONE',  ( 2.499999999999993783, -9.999999999999758415, -2.000000000000001776 ) ) ;
#296 = FACE_OUTER_BOUND ( 'NONE', #14, .T. ) ;
#297 = ORIENTED_EDGE ( 'NONE', *, *, #694, .T. ) ;
#298 = EDGE_CURVE ( 'NONE', #41, #747, #1020, .T. ) ;
#299 = VECTOR ( 'NONE', #6, 1000.000000000000000 ) ;
#300 = AXIS2_PLACEMENT_3D ( 'NONE', #878, #289, #618 ) ;
#301 = VERTEX_POINT ( 'NONE', #598 ) ;
#302 = FACE_OUTER_BOUND ( 'NONE', #371, .T. ) ;
#303 = VERTEX_POINT ( 'NONE', #930 ) ;
#304 = DIRECTION ( 'NONE',  ( 0.000000000000000000, 0.000000000000000000, 1.000000000000000000 ) ) ;
#305 = CARTESIAN_POINT ( 'NONE',  ( -40.00000000000000711, 20.00000000000017053, 2.220446049250313081E-13 ) ) ;
#306 = ORIENTED_EDGE ( 'NONE', *, *, #721, .T. ) ;
#307 = PLANE ( 'NONE',  #1037 ) ;
#308 = CARTESIAN_POINT ( 'NONE',  ( 23.50000000000000000, 5.000000000000254019, 2.220446049250313081E-13 ) ) ;
#309 = CYLINDRICAL_SURFACE ( 'NONE', #671, 2.499999999999993783 ) ;
#310 = VERTEX_POINT ( 'NONE', #271 ) ;
#311 = ADVANCED_FACE ( 'NONE', ( #684 ), #179, .T. ) ;
#312 = CARTESIAN_POINT ( 'NONE',  ( 19.99999999999998934, 15.00000000000006928, -3.500000000000169642 ) ) ;
#313 = CYLINDRICAL_SURFACE ( 'NONE', #110, 2.499999999999995115 ) ;
#314 = CIRCLE ( 'NONE', #70, 2.499999999999995115 ) ;
#315 = ORIENTED_EDGE ( 'NONE', *, *, #1049, .F. ) ;
#316 = AXIS2_PLACEMENT_3D ( 'NONE', #951, #540, #116 ) ;
#317 = ORIENTED_EDGE ( 'NONE', *, *, #492, .F. ) ;
#318 = LINE ( 'NONE', #572, #427 ) ;
#319 = ADVANCED_FACE ( 'NONE', ( #1014 ), #755, .F. ) ;
#320 = DIRECTION ( 'NONE',  ( 0.000000000000000000, 0.000000000000000000, -1.000000000000000000 ) ) ;
#321 = ORIENTED_EDGE ( 'NONE', *, *, #50, .F. ) ;
#322 = ORIENTED_EDGE ( 'NONE', *, *, #566, .F. ) ;
#323 = FACE_BOUND ( 'NONE', #582, .T. ) ;
#324 = EDGE_CURVE ( 'NONE', #101, #838, #327, .T. ) ;
#325 = ORIENTED_EDGE ( 'NONE', *, *, #665, .F. ) ;
#326 = EDGE_LOOP ( 'NONE', ( #1004, #662, #748, #888 ) ) ;
#327 = LINE ( 'NONE', #668, #864 ) ;
#328 = CYLINDRICAL_SURFACE ( 'NONE', #73, 3.499999999999994227 ) ;
#329 = EDGE_CURVE ( 'NONE', #1009, #88, #839, .T. ) ;
#330 = PRESENTATION_LAYER_ASSIGNMENT (  '', '', ( #213 ) ) ;
#331 = EDGE_LOOP ( 'NONE', ( #884, #288, #558, #219 ) ) ;
#332 = AXIS2_PLACEMENT_3D ( 'NONE', #521, #264, #418 ) ;
#333 = ORIENTED_EDGE ( 'NONE', *, *, #796, .T. ) ;
#334 = CIRCLE ( 'NONE', #448, 3.499999999999995115 ) ;
#335 = CARTESIAN_POINT ( 'NONE',  ( 25.99999999999999645, 5.000000000000060396, -2.000000000000001776 ) ) ;
#336 = VECTOR ( 'NONE', #256, 1000.000000000000000 ) ;
#337 = CARTESIAN_POINT ( 'NONE',  ( -35.00000000000000000, -19.99999999999958789, -2.000000000000001776 ) ) ;
#338 = ORIENTED_EDGE ( 'NONE', *, *, #721, .F. ) ;
#339 = EDGE_LOOP ( 'NONE', ( #678, #504, #48, #683 ) ) ;
#340 = CARTESIAN_POINT ( 'NONE',  ( 25.99999999999999645, 5.000000000000254019, 2.220446049250313081E-13 ) ) ;
#341 = DIRECTION ( 'NONE',  ( -1.000000000000000000, -8.673617379884098581E-14, 0.000000000000000000 ) ) ;
#342 = VERTEX_POINT ( 'NONE', #677 ) ;
#343 = CARTESIAN_POINT ( 'NONE',  ( -19.99999999999998934, 13.00000000000022027, -3.500000000000058620 ) ) ;
#344 = LINE ( 'NONE', #556, #831 ) ;
#345 = ORIENTED_EDGE ( 'NONE', *, *, #95, .F. ) ;
#346 = LINE ( 'NONE', #612, #248 ) ;
#347 = PRODUCT_CONTEXT ( 'NONE', #861, 'mechanical' ) ;
#348 = EDGE_CURVE ( 'NONE', #676, #140, #709, .T. ) ;
#349 = FACE_OUTER_BOUND ( 'NONE', #978, .T. ) ;
#350 = DIRECTION ( 'NONE',  ( 5.135813136053697657E-31, -1.000000000000000000, 1.096345236817342084E-14 ) ) ;
#351 = ORIENTED_EDGE ( 'NONE', *, *, #451, .T. ) ;
#352 = CARTESIAN_POINT ( 'NONE',  ( -19.99999999999998934, 16.50000000000045830, -3.500000000000058620 ) ) ;
#353 = VECTOR ( 'NONE', #475, 1000.000000000000000 ) ;
#354 = AXIS2_PLACEMENT_3D ( 'NONE', #117, #365, #1008 ) ;
#355 = DIRECTION ( 'NONE',  ( 0.000000000000000000, -1.000000000000000000, 1.102788495442400644E-14 ) ) ;
#356 = ADVANCED_FACE ( 'NONE', ( #190 ), #186, .T. ) ;
#357 = CIRCLE ( 'NONE', #250, 3.499999999999998668 ) ;
#358 = PLANE ( 'NONE',  #375 ) ;
#359 =( LENGTH_UNIT ( ) NAMED_UNIT ( * ) SI_UNIT ( .MILLI., .METRE. ) );
#360 = ORIENTED_EDGE ( 'NONE', *, *, #517, .T. ) ;
#361 = LINE ( 'NONE', #114, #786 ) ;
#362 = DIRECTION ( 'NONE',  ( -1.000000000000000000, 0.000000000000000000, 0.000000000000000000 ) ) ;
#363 = DIRECTION ( 'NONE',  ( 5.135813106666338011E-31, 0.000000000000000000, 1.000000000000000000 ) ) ;
#364 = EDGE_CURVE ( 'NONE', #701, #310, #93, .T. ) ;
#365 = DIRECTION ( 'NONE',  ( 0.000000000000000000, 0.000000000000000000, -1.000000000000000000 ) ) ;
#366 = ORIENTED_EDGE ( 'NONE', *, *, #474, .T. ) ;
#367 = FACE_OUTER_BOUND ( 'NONE', #331, .T. ) ;
#368 = DIRECTION ( 'NONE',  ( -1.000000000000000000, 0.000000000000000000, 0.000000000000000000 ) ) ;
#369 = CARTESIAN_POINT ( 'NONE',  ( 19.99999999999998934, 13.00000000000023448, -3.500000000000058620 ) ) ;
#370 = EDGE_CURVE ( 'NONE', #918, #270, #282, .T. ) ;
#371 = EDGE_LOOP ( 'NONE', ( #111, #166, #923, #225 ) ) ;
#372 = CARTESIAN_POINT ( 'NONE',  ( -19.99999999999998934, 12.50000000000023270, -2.000000000000001776 ) ) ;
#373 = DIRECTION ( 'NONE',  ( 1.000000000000000000, 2.938735877055719422E-39, 0.000000000000000000 ) ) ;
#374 = VECTOR ( 'NONE', #139, 1000.000000000000000 ) ;
#375 = AXIS2_PLACEMENT_3D ( 'NONE', #621, #856, #176 ) ;
#376 = VECTOR ( 'NONE', #1057, 1000.000000000000000 ) ;
#377 = CARTESIAN_POINT ( 'NONE',  ( 19.99999999999998934, 15.50000000000000000, -2.000000000000112799 ) ) ;
#378 = CARTESIAN_POINT ( 'NONE',  ( -23.50000000000000000, 5.000000000000060396, 2.220446049250313081E-13 ) ) ;
#379 = ORIENTED_EDGE ( 'NONE', *, *, #505, .T. ) ;
#380 = LINE ( 'NONE', #718, #934 ) ;
#381 = FACE_OUTER_BOUND ( 'NONE', #263, .T. ) ;
#382 = EDGE_CURVE ( 'NONE', #496, #411, #32, .T. ) ;
#383 = EDGE_LOOP ( 'NONE', ( #103, #1077, #1042, #597 ) ) ;
#384 = PLANE ( 'NONE',  #956 ) ;
#385 = PLANE ( 'NONE',  #197 ) ;
#386 = PLANE ( 'NONE',  #814 ) ;
#387 = DIRECTION ( 'NONE',  ( 1.000000000000000000, 2.938735877055719422E-39, 0.000000000000000000 ) ) ;
#388 = ADVANCED_FACE ( 'NONE', ( #714 ), #127, .F. ) ;
#389 = AXIS2_PLACEMENT_3D ( 'NONE', #465, #788, #801 ) ;
#390 = AXIS2_PLACEMENT_3D ( 'NONE', #335, #436, #773 ) ;
#391 = AXIS2_PLACEMENT_3D ( 'NONE', #1064, #898, #402 ) ;
#392 = LINE ( 'NONE', #807, #520 ) ;
#393 = CARTESIAN_POINT ( 'NONE',  ( -25.99999999999999645, 5.000000000000254019, 2.220446049250313081E-13 ) ) ;
#394 = CARTESIAN_POINT ( 'NONE',  ( -25.99999999999999645, 5.000000000000365041, -1.800000000000023803 ) ) ;
#395 = CARTESIAN_POINT ( 'NONE',  ( 1.000000000000014655, 12.50000000000003908, 2.220446049250313081E-13 ) ) ;
#396 = FACE_OUTER_BOUND ( 'NONE', #326, .T. ) ;
#397 = ADVANCED_FACE ( 'NONE', ( #454 ), #697, .T. ) ;
#398 = VERTEX_POINT ( 'NONE', #802 ) ;
#399 = CARTESIAN_POINT ( 'NONE',  ( 2.499999999999993783, -9.999999999999994671, -1.800000000000023803 ) ) ;
#400 = FACE_OUTER_BOUND ( 'NONE', #696, .T. ) ;
#401 = CARTESIAN_POINT ( 'NONE',  ( -38.99999999999997868, 15.00000000000006928, -3.500000000000169642 ) ) ;
#402 = DIRECTION ( 'NONE',  ( -1.000000000000000000, -5.877471754111437540E-39, 0.000000000000000000 ) ) ;
#403 = ORIENTED_EDGE ( 'NONE', *, *, #967, .F. ) ;
#404 = EDGE_CURVE ( 'NONE', #806, #596, #380, .T. ) ;
#405 = ORIENTED_EDGE ( 'NONE', *, *, #729, .F. ) ;
#406 = CARTESIAN_POINT ( 'NONE',  ( -25.99999999999999645, 5.000000000000060396, -2.000000000000001776 ) ) ;
#407 = AXIS2_PLACEMENT_3D ( 'NONE', #1044, #22, #362 ) ;
#408 = AXIS2_PLACEMENT_3D ( 'NONE', #406, #1056, #725 ) ;
#409 = VERTEX_POINT ( 'NONE', #1025 ) ;
#410 = VECTOR ( 'NONE', #442, 1000.000000000000000 ) ;
#411 = VERTEX_POINT ( 'NONE', #372 ) ;
#412 = PLANE ( 'NONE',  #894 ) ;
#413 = CARTESIAN_POINT ( 'NONE',  ( 35.00000000000000000, -19.99999999999958789, -2.000000000000001776 ) ) ;
#414 = ADVANCED_FACE ( 'NONE', ( #623 ), #542, .T. ) ;
#415 = CARTESIAN_POINT ( 'NONE',  ( -40.00000000000000711, 12.74670786120460342, 0.0009999999998067110596 ) ) ;
#416 = ORIENTED_EDGE ( 'NONE', *, *, #996, .F. ) ;
#417 = ORIENTED_EDGE ( 'NONE', *, *, #382, .F. ) ;
#418 = DIRECTION ( 'NONE',  ( 0.000000000000000000, 0.000000000000000000, 1.000000000000000000 ) ) ;
#419 = DIRECTION ( 'NONE',  ( -0.000000000000000000, -0.000000000000000000, 1.000000000000000000 ) ) ;
#420 = EDGE_CURVE ( 'NONE', #512, #900, #633, .T. ) ;
#421 = ORIENTED_EDGE ( 'NONE', *, *, #580, .F. ) ;
#422 = ORIENTED_EDGE ( 'NONE', *, *, #635, .T. ) ;
#423 = CARTESIAN_POINT ( 'NONE',  ( -35.00000000000000000, -14.99999999999976374, -2.000000000000112799 ) ) ;
#424 = DIRECTION ( 'NONE',  ( -2.938735877055718117E-39, 1.000000000000000000, 0.000000000000000000 ) ) ;
#425 = AXIS2_PLACEMENT_3D ( 'NONE', #1063, #269, #603 ) ;
#426 = ORIENTED_EDGE ( 'NONE', *, *, #594, .F. ) ;
#427 = VECTOR ( 'NONE', #901, 1000.000000000000000 ) ;
#428 = ORIENTED_EDGE ( 'NONE', *, *, #175, .T. ) ;
#429 = VECTOR ( 'NONE', #752, 1000.000000000000000 ) ;
#430 = CARTESIAN_POINT ( 'NONE',  ( 25.99999999999999645, 5.000000000000365041, -1.800000000000023803 ) ) ;
#431 = AXIS2_PLACEMENT_3D ( 'NONE', #191, #212, #1033 ) ;
#432 = DIRECTION ( 'NONE',  ( 0.000000000000000000, 0.000000000000000000, -1.000000000000000000 ) ) ;
#433 = ORIENTED_EDGE ( 'NONE', *, *, #267, .F. ) ;
#434 = LINE ( 'NONE', #100, #145 ) ;
#435 = ORIENTED_EDGE ( 'NONE', *, *, #1086, .T. ) ;
#436 = DIRECTION ( 'NONE',  ( 0.000000000000000000, 0.000000000000000000, -1.000000000000000000 ) ) ;
#437 = PLANE ( 'NONE',  #232 ) ;
#438 = DIRECTION ( 'NONE',  ( -1.000000000000000000, 0.000000000000000000, 0.000000000000000000 ) ) ;
#439 = DIRECTION ( 'NONE',  ( 0.000000000000000000, 2.312964634635751339E-15, -1.000000000000000000 ) ) ;
#440 = EDGE_CURVE ( 'NONE', #713, #259, #1003, .T. ) ;
#441 = DIRECTION ( 'NONE',  ( -0.7071067811865483499, -4.156000133564594771E-39, -0.7071067811865467956 ) ) ;
#442 = DIRECTION ( 'NONE',  ( -0.000000000000000000, -0.000000000000000000, -1.000000000000000000 ) ) ;
#443 = VERTEX_POINT ( 'NONE', #123 ) ;
#444 = CARTESIAN_POINT ( 'NONE',  ( -28.49999999999998934, 5.000000000000060396, -2.000000000000001776 ) ) ;
#445 = ORIENTED_EDGE ( 'NONE', *, *, #451, .F. ) ;
#446 = DIRECTION ( 'NONE',  ( 1.734723475976806601E-16, -1.000000000000000000, 0.000000000000000000 ) ) ;
#447 = VECTOR ( 'NONE', #72, 1000.000000000000000 ) ;
#448 = AXIS2_PLACEMENT_3D ( 'NONE', #793, #935, #10 ) ;
#449 = LINE ( 'NONE', #291, #481 ) ;
#450 = CIRCLE ( 'NONE', #503, 2.699999999999980194 ) ;
#451 = EDGE_CURVE ( 'NONE', #576, #237, #1047, .T. ) ;
#452 =( NAMED_UNIT ( * ) SI_UNIT ( $, .STERADIAN. ) SOLID_ANGLE_UNIT ( ) );
#453 = ORIENTED_EDGE ( 'NONE', *, *, #792, .F. ) ;
#454 = FACE_OUTER_BOUND ( 'NONE', #875, .T. ) ;
#455 = CARTESIAN_POINT ( 'NONE',  ( 25.99999999999999645, 5.000000000000060396, -2.000000000000001776 ) ) ;
#456 = LINE ( 'NONE', #960, #376 ) ;
#457 = ADVANCED_FACE ( 'NONE', ( #42 ), #217, .F. ) ;
#458 = CARTESIAN_POINT ( 'NONE',  ( 1.000000000000014655, 16.50000000000004263, -2.000000000000112799 ) ) ;
#459 = ORIENTED_EDGE ( 'NONE', *, *, #870, .F. ) ;
#460 = DIRECTION ( 'NONE',  ( -0.7071067811865490160, -4.156000133564598687E-39, -0.7071067811865460184 ) ) ;
#461 = CARTESIAN_POINT ( 'NONE',  ( -19.99999999999998934, 16.50000000000001421, -2.000000000000112799 ) ) ;
#462 = FACE_OUTER_BOUND ( 'NONE', #339, .T. ) ;
#463 = VERTEX_POINT ( 'NONE', #464 ) ;
#464 = CARTESIAN_POINT ( 'NONE',  ( 1.000000000000014655, 12.50000000000023270, -2.000000000000001776 ) ) ;
#465 = CARTESIAN_POINT ( 'NONE',  ( 25.99999999999999645, 5.000000000000365041, -1.800000000000023803 ) ) ;
#466 = CIRCLE ( 'NONE', #90, 3.499999999999995115 ) ;
#467 = VECTOR ( 'NONE', #962, 1000.000000000000000 ) ;
#468 = ORIENTED_EDGE ( 'NONE', *, *, #235, .T. ) ;
#469 = EDGE_CURVE ( 'NONE', #270, #596, #1018, .T. ) ;
#470 = FACE_OUTER_BOUND ( 'NONE', #700, .T. ) ;
#471 = DIRECTION ( 'NONE',  ( 1.000000000000000000, 0.000000000000000000, 0.000000000000000000 ) ) ;
#472 = ORIENTED_EDGE ( 'NONE', *, *, #290, .T. ) ;
#473 = CARTESIAN_POINT ( 'NONE',  ( 28.49999999999998934, 5.000000000000060396, 2.220446049250313081E-13 ) ) ;
#474 = EDGE_CURVE ( 'NONE', #409, #101, #195, .T. ) ;
#475 = DIRECTION ( 'NONE',  ( 1.000000000000000000, 5.877471754111437540E-39, 0.000000000000000000 ) ) ;
#476 = ORIENTED_EDGE ( 'NONE', *, *, #78, .T. ) ;
#477 = PLANE ( 'NONE',  #656 ) ;
#478 = ORIENTED_EDGE ( 'NONE', *, *, #364, .F. ) ;
#479 = DIRECTION ( 'NONE',  ( 0.000000000000000000, 0.000000000000000000, -1.000000000000000000 ) ) ;
#480 = DIRECTION ( 'NONE',  ( -2.938735877055718117E-39, 1.000000000000000000, 0.000000000000000000 ) ) ;
#481 = VECTOR ( 'NONE', #108, 1000.000000000000000 ) ;
#482 = ADVANCED_FACE ( 'NONE', ( #367 ), #535, .T. ) ;
#483 = AXIS2_PLACEMENT_3D ( 'NONE', #938, #82, #526 ) ;
#484 = VECTOR ( 'NONE', #499, 1000.000000000000000 ) ;
#485 = AXIS2_PLACEMENT_3D ( 'NONE', #79, #5, #182 ) ;
#486 = ORIENTED_EDGE ( 'NONE', *, *, #1086, .F. ) ;
#487 = CARTESIAN_POINT ( 'NONE',  ( 39.99999999999997868, -19.99999999999958789, -2.000000000000001776 ) ) ;
#488 = DIRECTION ( 'NONE',  ( 0.000000000000000000, 0.000000000000000000, -1.000000000000000000 ) ) ;
#489 = DIRECTION ( 'NONE',  ( 0.000000000000000000, 0.000000000000000000, -1.000000000000000000 ) ) ;
#490 = LINE ( 'NONE', #228, #813 ) ;
#491 = CARTESIAN_POINT ( 'NONE',  ( -38.99999999999997868, 16.50000000000001421, -2.000000000000112799 ) ) ;
#492 = EDGE_CURVE ( 'NONE', #140, #27, #361, .T. ) ;
#493 = VERTEX_POINT ( 'NONE', #473 ) ;
#494 = LINE ( 'NONE', #749, #501 ) ;
#495 = FACE_OUTER_BOUND ( 'NONE', #834, .T. ) ;
#496 = VERTEX_POINT ( 'NONE', #731 ) ;
#497 = CARTESIAN_POINT ( 'NONE',  ( 28.49999999999998934, 5.000000000000060396, -2.000000000000001776 ) ) ;
#498 = ORIENTED_EDGE ( 'NONE', *, *, #175, .F. ) ;
#499 = DIRECTION ( 'NONE',  ( 1.734723475976806601E-16, -1.000000000000000000, 0.000000000000000000 ) ) ;
#500 = AXIS2_PLACEMENT_3D ( 'NONE', #543, #703, #698 ) ;
#501 = VECTOR ( 'NONE', #1078, 1000.000000000000000 ) ;
#502 = ORIENTED_EDGE ( 'NONE', *, *, #859, .T. ) ;
#503 = AXIS2_PLACEMENT_3D ( 'NONE', #908, #988, #562 ) ;
#504 = ORIENTED_EDGE ( 'NONE', *, *, #886, .F. ) ;
#505 = EDGE_CURVE ( 'NONE', #342, #259, #392, .T. ) ;
#506 = DIRECTION ( 'NONE',  ( 1.000000000000000000, 2.938735877055719422E-39, 0.000000000000000000 ) ) ;
#507 = EDGE_LOOP ( 'NONE', ( #591, #360, #405, #81 ) ) ;
#508 = ORIENTED_EDGE ( 'NONE', *, *, #751, .T. ) ;
#509 = DIRECTION ( 'NONE',  ( 0.000000000000000000, 0.000000000000000000, -1.000000000000000000 ) ) ;
#510 = UNCERTAINTY_MEASURE_WITH_UNIT (LENGTH_MEASURE( 1.000000000000000082E-05 ), #936, 'distance_accuracy_value', 'NONE');
#511 = CARTESIAN_POINT ( 'NONE',  ( 39.99999999999997868, 20.00000000000044764, -2.000000000000112799 ) ) ;
#512 = VERTEX_POINT ( 'NONE', #1060 ) ;
#513 = ORIENTED_EDGE ( 'NONE', *, *, #370, .T. ) ;
#514 = DIRECTION ( 'NONE',  ( -0.000000000000000000, -0.000000000000000000, 1.000000000000000000 ) ) ;
#515 = CARTESIAN_POINT ( 'NONE',  ( 0.000000000000000000, 0.000000000000000000, 0.000000000000000000 ) ) ;
#516 = CARTESIAN_POINT ( 'NONE',  ( 35.00000000000000000, -19.99999999999996092, 2.220446049250313081E-13 ) ) ;
#517 = EDGE_CURVE ( 'NONE', #237, #167, #737, .T. ) ;
#518 = DIRECTION ( 'NONE',  ( 0.000000000000000000, 0.000000000000000000, -1.000000000000000000 ) ) ;
#519 = EDGE_LOOP ( 'NONE', ( #281, #909, #1087, #128 ) ) ;
#520 = VECTOR ( 'NONE', #559, 1000.000000000000227 ) ;
#521 = CARTESIAN_POINT ( 'NONE',  ( 1.000000000000014655, 16.50000000000048672, -3.500000000000058620 ) ) ;
#522 = CARTESIAN_POINT ( 'NONE',  ( 25.99999999999999645, 5.000000000000365041, -1.800000000000023803 ) ) ;
#523 = EDGE_CURVE ( 'NONE', #576, #409, #955, .T. ) ;
#524 = ORIENTED_EDGE ( 'NONE', *, *, #594, .T. ) ;
#525 = ORIENTED_EDGE ( 'NONE', *, *, #1058, .T. ) ;
#526 = DIRECTION ( 'NONE',  ( 0.000000000000000000, 2.312964634635746211E-15, -1.000000000000000000 ) ) ;
#527 = LINE ( 'NONE', #337, #410 ) ;
#528 = DIRECTION ( 'NONE',  ( -2.938735877055718117E-39, 1.000000000000000000, 0.000000000000000000 ) ) ;
#529 = CARTESIAN_POINT ( 'NONE',  ( 0.000000000000000000, -9.999999999999758415, -2.000000000000001776 ) ) ;
#530 = DIRECTION ( 'NONE',  ( -4.625929269271503466E-15, 0.000000000000000000, 1.000000000000000000 ) ) ;
#531 = ADVANCED_FACE ( 'NONE', ( #885, #60, #889, #138 ), #307, .T. ) ;
#532 = DIRECTION ( 'NONE',  ( 0.000000000000000000, -1.000000000000000000, 1.098658201451979509E-14 ) ) ;
#533 = LINE ( 'NONE', #954, #799 ) ;
#534 = ORIENTED_EDGE ( 'NONE', *, *, #69, .T. ) ;
#535 = PLANE ( 'NONE',  #17 ) ;
#536 = ADVANCED_FACE ( 'NONE', ( #648 ), #384, .F. ) ;
#537 = AXIS2_PLACEMENT_3D ( 'NONE', #653, #646, #489 ) ;
#538 = CARTESIAN_POINT ( 'NONE',  ( -19.99999999999998934, 16.50000000000045830, -3.500000000000058620 ) ) ;
#539 = VECTOR ( 'NONE', #424, 1000.000000000000000 ) ;
#540 = DIRECTION ( 'NONE',  ( 0.000000000000000000, 0.000000000000000000, -1.000000000000000000 ) ) ;
#541 = LINE ( 'NONE', #30, #916 ) ;
#542 = PLANE ( 'NONE',  #300 ) ;
#543 = CARTESIAN_POINT ( 'NONE',  ( 0.000000000000000000, -9.999999999999994671, -1.800000000000023803 ) ) ;
#544 = ORIENTED_EDGE ( 'NONE', *, *, #587, .F. ) ;
#545 = DIRECTION ( 'NONE',  ( 0.000000000000000000, -1.000000000000000000, 1.098658201451981876E-14 ) ) ;
#546 = DIRECTION ( 'NONE',  ( -2.938735877055718117E-39, 1.000000000000000000, 0.000000000000000000 ) ) ;
#547 = CYLINDRICAL_SURFACE ( 'NONE', #1054, 4.999999999999997335 ) ;
#548 = EDGE_CURVE ( 'NONE', #676, #679, #148, .T. ) ;
#549 = DIRECTION ( 'NONE',  ( 0.000000000000000000, 0.000000000000000000, -1.000000000000000000 ) ) ;
#550 = CARTESIAN_POINT ( 'NONE',  ( -2.699999999999972200, -9.999999999999994671, -2.000000000000001776 ) ) ;
#551 = AXIS2_PLACEMENT_3D ( 'NONE', #394, #659, #564 ) ;
#552 = ADVANCED_FACE ( 'NONE', ( #302 ), #477, .T. ) ;
#553 = ORIENTED_EDGE ( 'NONE', *, *, #972, .F. ) ;
#554 = DIRECTION ( 'NONE',  ( -1.000000000000000000, 0.000000000000000000, 0.000000000000000000 ) ) ;
#555 = ORIENTED_EDGE ( 'NONE', *, *, #290, .F. ) ;
#556 = CARTESIAN_POINT ( 'NONE',  ( 19.99999999999998934, 15.50000000000000000, -2.000000000000112799 ) ) ;
#557 = DIRECTION ( 'NONE',  ( 1.000000000000000000, -9.130123557772685590E-17, -4.622231866529366047E-33 ) ) ;
#558 = ORIENTED_EDGE ( 'NONE', *, *, #643, .F. ) ;
#559 = DIRECTION ( 'NONE',  ( 0.7071067811865490160, 8.659560562354952580E-17, -0.7071067811865460184 ) ) ;
#560 = ADVANCED_FACE ( 'NONE', ( #462 ), #547, .T. ) ;
#561 = DIRECTION ( 'NONE',  ( 0.000000000000000000, 0.000000000000000000, -1.000000000000000000 ) ) ;
#562 = DIRECTION ( 'NONE',  ( -1.000000000000000000, -1.137207612029248649E-13, 0.000000000000000000 ) ) ;
#563 = DIRECTION ( 'NONE',  ( -1.000000000000000000, -5.877471754111437540E-39, 0.000000000000000000 ) ) ;
#564 = DIRECTION ( 'NONE',  ( -1.000000000000000000, 0.000000000000000000, 0.000000000000000000 ) ) ;
#565 = CARTESIAN_POINT ( 'NONE',  ( 0.000000000000000000, -9.999999999999758415, -2.000000000000001776 ) ) ;
#566 = EDGE_CURVE ( 'NONE', #900, #443, #720, .T. ) ;
#567 = CIRCLE ( 'NONE', #198, 1.499999999999994449 ) ;
#568 = PLANE ( 'NONE',  #391 ) ;
#569 = VECTOR ( 'NONE', #944, 1000.000000000000000 ) ;
#570 = CIRCLE ( 'NONE', #36, 1.499999999999997780 ) ;
#571 = ORIENTED_EDGE ( 'NONE', *, *, #206, .F. ) ;
#572 = CARTESIAN_POINT ( 'NONE',  ( -40.00000000000000711, 20.00000000000044764, -2.000000000000112799 ) ) ;
#573 = CYLINDRICAL_SURFACE ( 'NONE', #1090, 2.499999999999993783 ) ;
#574 = CARTESIAN_POINT ( 'NONE',  ( -19.99999999999998934, 13.00000000000022027, -3.500000000000058620 ) ) ;
#575 = ORIENTED_EDGE ( 'NONE', *, *, #107, .F. ) ;
#576 = VERTEX_POINT ( 'NONE', #1034 ) ;
#577 = LINE ( 'NONE', #227, #1072 ) ;
#578 = CARTESIAN_POINT ( 'NONE',  ( 19.99999999999998934, 16.50000000000004263, -2.000000000000112799 ) ) ;
#579 = DIRECTION ( 'NONE',  ( 1.000000000000000000, 2.938735877055719422E-39, 0.000000000000000000 ) ) ;
#580 = EDGE_CURVE ( 'NONE', #1009, #512, #23, .T. ) ;
#581 = ORIENTED_EDGE ( 'NONE', *, *, #548, .F. ) ;
#582 = EDGE_LOOP ( 'NONE', ( #80, #476 ) ) ;
#583 = CARTESIAN_POINT ( 'NONE',  ( -40.00000000000000711, 12.74670786120460342, 0.0009999999998067110596 ) ) ;
#584 = PRESENTATION_STYLE_ASSIGNMENT (( #616 ) ) ;
#585 = CIRCLE ( 'NONE', #389, 2.499999999999995115 ) ;
#586 = EDGE_LOOP ( 'NONE', ( #445, #781, #366, #185 ) ) ;
#587 = EDGE_CURVE ( 'NONE', #918, #806, #1075, .T. ) ;
#588 = ORIENTED_EDGE ( 'NONE', *, *, #996, .T. ) ;
#589 = DIRECTION ( 'NONE',  ( 0.000000000000000000, -1.000000000000000000, 1.102788495442399540E-14 ) ) ;
#590 = DIRECTION ( 'NONE',  ( 0.000000000000000000, 0.000000000000000000, -1.000000000000000000 ) ) ;
#591 = ORIENTED_EDGE ( 'NONE', *, *, #796, .F. ) ;
#592 = ORIENTED_EDGE ( 'NONE', *, *, #680, .T. ) ;
#593 = DIRECTION ( 'NONE',  ( 2.938735877055718117E-39, -1.000000000000000000, 0.000000000000000000 ) ) ;
#594 = EDGE_CURVE ( 'NONE', #303, #496, #456, .T. ) ;
#595 = CARTESIAN_POINT ( 'NONE',  ( 19.99999999999998934, 15.00000000000006928, -3.500000000000169642 ) ) ;
#596 = VERTEX_POINT ( 'NONE', #727 ) ;
#597 = ORIENTED_EDGE ( 'NONE', *, *, #235, .F. ) ;
#598 = CARTESIAN_POINT ( 'NONE',  ( 19.99999999999998934, 12.50000000000023270, -2.000000000000001776 ) ) ;
#599 = LINE ( 'NONE', #595, #800 ) ;
#600 = EDGE_CURVE ( 'NONE', #259, #713, #450, .T. ) ;
#601 = PRODUCT_DEFINITION_FORMATION_WITH_SPECIFIED_SOURCE ( 'ANY', '', #704, .NOT_KNOWN. ) ;
#602 = CARTESIAN_POINT ( 'NONE',  ( 39.99999999999997868, 20.00000000000017053, 2.220446049250313081E-13 ) ) ;
#603 = DIRECTION ( 'NONE',  ( -1.000000000000000000, 0.000000000000000000, 0.000000000000000000 ) ) ;
#604 = ORIENTED_EDGE ( 'NONE', *, *, #267, .T. ) ;
#605 = AXIS2_PLACEMENT_3D ( 'NONE', #377, #1043, #293 ) ;
#606 = CARTESIAN_POINT ( 'NONE',  ( 19.99999999999998934, 16.50000000000004263, -2.000000000000112799 ) ) ;
#607 = CARTESIAN_POINT ( 'NONE',  ( -38.99999999999997868, 16.50000000000001421, -2.000000000000112799 ) ) ;
#608 = ADVANCED_FACE ( 'NONE', ( #396 ), #61, .T. ) ;
#609 = LINE ( 'NONE', #775, #1002 ) ;
#610 = DIRECTION ( 'NONE',  ( 0.000000000000000000, 0.000000000000000000, -1.000000000000000000 ) ) ;
#611 = ORIENTED_EDGE ( 'NONE', *, *, #757, .T. ) ;
#612 = CARTESIAN_POINT ( 'NONE',  ( -38.99999999999997868, 15.00000000000006928, -3.500000000000169642 ) ) ;
#613 = CARTESIAN_POINT ( 'NONE',  ( -35.00000000000000000, -19.99999999999958789, -2.000000000000001776 ) ) ;
#614 = ORIENTED_EDGE ( 'NONE', *, *, #635, .F. ) ;
#615 = EDGE_CURVE ( 'NONE', #1083, #303, #357, .T. ) ;
#616 = SURFACE_STYLE_USAGE ( .BOTH. , #1079 ) ;
#617 = ORIENTED_EDGE ( 'NONE', *, *, #932, .T. ) ;
#618 = DIRECTION ( 'NONE',  ( 0.000000000000000000, 0.000000000000000000, 1.000000000000000000 ) ) ;
#619 = LINE ( 'NONE', #196, #880 ) ;
#620 = ORIENTED_EDGE ( 'NONE', *, *, #505, .F. ) ;
#621 = CARTESIAN_POINT ( 'NONE',  ( 20.99999999999998934, 12.50000000000051159, 0.0009999999999177333621 ) ) ;
#622 =( GEOMETRIC_REPRESENTATION_CONTEXT ( 3 ) GLOBAL_UNCERTAINTY_ASSIGNED_CONTEXT ( ( #510 ) ) GLOBAL_UNIT_ASSIGNED_CONTEXT ( ( #936, #26, #848 ) ) REPRESENTATION_CONTEXT ( 'NONE', 'WORKASPACE' ) );
#623 = FACE_OUTER_BOUND ( 'NONE', #383, .T. ) ;
#624 = VECTOR ( 'NONE', #460, 1000.000000000000227 ) ;
#625 = CARTESIAN_POINT ( 'NONE',  ( 39.99999999999997868, -14.99999999999976374, -2.000000000000112799 ) ) ;
#626 = VECTOR ( 'NONE', #170, 1000.000000000000000 ) ;
#627 = CARTESIAN_POINT ( 'NONE',  ( 19.99999999999998934, 16.50000000000004263, -2.000000000000112799 ) ) ;
#628 = ORIENTED_EDGE ( 'NONE', *, *, #715, .F. ) ;
#629 = DIRECTION ( 'NONE',  ( -0.000000000000000000, -0.000000000000000000, 1.000000000000000000 ) ) ;
#630 = CARTESIAN_POINT ( 'NONE',  ( 10.50000000000000888, 15.00000000000006928, -3.500000000000169642 ) ) ;
#631 = EDGE_CURVE ( 'NONE', #828, #1076, #55, .T. ) ;
#632 = VERTEX_POINT ( 'NONE', #822 ) ;
#633 = LINE ( 'NONE', #948, #987 ) ;
#634 = CARTESIAN_POINT ( 'NONE',  ( -28.49999999999998934, 5.000000000000365041, -1.800000000000023803 ) ) ;
#635 = EDGE_CURVE ( 'NONE', #632, #1083, #735, .T. ) ;
#636 = ORIENTED_EDGE ( 'NONE', *, *, #631, .T. ) ;
#637 = DIRECTION ( 'NONE',  ( 1.000000000000000000, 2.938735877055719422E-39, 0.000000000000000000 ) ) ;
#638 = DIRECTION ( 'NONE',  ( 1.000000000000000000, -9.130123557772694219E-17, -9.244463733058732095E-33 ) ) ;
#639 = ORIENTED_EDGE ( 'NONE', *, *, #382, .T. ) ;
#640 = AXIS2_PLACEMENT_3D ( 'NONE', #393, #488, #47 ) ;
#641 = VECTOR ( 'NONE', #921, 1000.000000000000000 ) ;
#642 = AXIS2_PLACEMENT_3D ( 'NONE', #1040, #549, #707 ) ;
#643 = EDGE_CURVE ( 'NONE', #1065, #292, #74, .T. ) ;
#644 = ORIENTED_EDGE ( 'NONE', *, *, #741, .T. ) ;
#645 = DIRECTION ( 'NONE',  ( 0.7071067811865483499, 8.659560562354945184E-17, -0.7071067811865467956 ) ) ;
#646 = DIRECTION ( 'NONE',  ( 1.000000000000000000, 2.938735877055719422E-39, 0.000000000000000000 ) ) ;
#647 = ORIENTED_EDGE ( 'NONE', *, *, #404, .F. ) ;
#648 = FACE_OUTER_BOUND ( 'NONE', #998, .T. ) ;
#649 = ADVANCED_FACE ( 'NONE', ( #323, #655, #977, #832 ), #568, .F. ) ;
#650 = PLANE ( 'NONE',  #214 ) ;
#651 = FILL_AREA_STYLE_COLOUR ( '', #1016 ) ;
#652 = ORIENTED_EDGE ( 'NONE', *, *, #440, .F. ) ;
#653 = CARTESIAN_POINT ( 'NONE',  ( 19.99999999999998934, 16.50000000000048672, -3.500000000000058620 ) ) ;
#654 = AXIS2_PLACEMENT_3D ( 'NONE', #455, #795, #368 ) ;
#655 = FACE_BOUND ( 'NONE', #20, .T. ) ;
#656 = AXIS2_PLACEMENT_3D ( 'NONE', #487, #812, #820 ) ;
#657 = ORIENTED_EDGE ( 'NONE', *, *, #1081, .T. ) ;
#658 = ORIENTED_EDGE ( 'NONE', *, *, #298, .T. ) ;
#659 = DIRECTION ( 'NONE',  ( 0.000000000000000000, 0.000000000000000000, -1.000000000000000000 ) ) ;
#660 = ADVANCED_FACE ( 'NONE', ( #495 ), #313, .F. ) ;
#661 = ORIENTED_EDGE ( 'NONE', *, *, #1030, .F. ) ;
#662 = ORIENTED_EDGE ( 'NONE', *, *, #757, .F. ) ;
#663 = CARTESIAN_POINT ( 'NONE',  ( -25.99999999999999645, 5.000000000000365041, -1.800000000000023803 ) ) ;
#664 = DIRECTION ( 'NONE',  ( 1.000000000000000000, 2.938735877055719422E-39, 0.000000000000000000 ) ) ;
#665 = EDGE_CURVE ( 'NONE', #1065, #1051, #155, .T. ) ;
#666 = ORIENTED_EDGE ( 'NONE', *, *, #904, .F. ) ;
#667 = ORIENTED_EDGE ( 'NONE', *, *, #348, .F. ) ;
#668 = CARTESIAN_POINT ( 'NONE',  ( -2.499999999999993783, -9.999999999999994671, -1.800000000000023803 ) ) ;
#669 = UNCERTAINTY_MEASURE_WITH_UNIT (LENGTH_MEASURE( 1.000000000000000082E-05 ), #359, 'distance_accuracy_value', 'NONE');
#670 = DIRECTION ( 'NONE',  ( 1.000000000000000000, 5.877471754111437540E-39, 0.000000000000000000 ) ) ;
#671 = AXIS2_PLACEMENT_3D ( 'NONE', #160, #821, #993 ) ;
#672 = CIRCLE ( 'NONE', #726, 4.999999999999997335 ) ;
#673 = ORIENTED_EDGE ( 'NONE', *, *, #1058, .F. ) ;
#674 = CIRCLE ( 'NONE', #485, 2.499999999999993783 ) ;
#675 = EDGE_CURVE ( 'NONE', #27, #991, #570, .T. ) ;
#676 = VERTEX_POINT ( 'NONE', #607 ) ;
#677 = CARTESIAN_POINT ( 'NONE',  ( 28.49999999999998934, 5.000000000000060396, -1.800000000000023803 ) ) ;
#678 = ORIENTED_EDGE ( 'NONE', *, *, #631, .F. ) ;
#679 = VERTEX_POINT ( 'NONE', #845 ) ;
#680 = EDGE_CURVE ( 'NONE', #161, #25, #599, .T. ) ;
#681 = CARTESIAN_POINT ( 'NONE',  ( -35.00000000000000000, -14.99999999999998579, 3.330669073875469621E-13 ) ) ;
#682 = LINE ( 'NONE', #945, #712 ) ;
#683 = ORIENTED_EDGE ( 'NONE', *, *, #1022, .F. ) ;
#684 = FACE_OUTER_BOUND ( 'NONE', #699, .T. ) ;
#685 = CARTESIAN_POINT ( 'NONE',  ( 23.30000000000002203, 5.000000000000365041, -2.000000000000001776 ) ) ;
#686 = EDGE_LOOP ( 'NONE', ( #973, #1021, #184, #673 ) ) ;
#687 = VECTOR ( 'NONE', #546, 1000.000000000000000 ) ;
#688 = DIRECTION ( 'NONE',  ( -0.000000000000000000, -0.000000000000000000, 1.000000000000000000 ) ) ;
#689 = CLOSED_SHELL ( 'NONE', ( #245, #162, #827, #805, #121, #1011, #531, #649, #482, #958, #552, #608, #756, #143, #156, #920, #239, #853, #414, #397, #789, #311, #126, #708, #457, #43, #536, #216, #356, #560, #986, #660, #319, #910, #194, #388 ) ) ;
#690 = ORIENTED_EDGE ( 'NONE', *, *, #615, .F. ) ;
#691 = AXIS2_PLACEMENT_3D ( 'NONE', #892, #974, #554 ) ;
#692 = DIRECTION ( 'NONE',  ( -1.000000000000000000, 0.000000000000000000, 0.000000000000000000 ) ) ;
#693 = CARTESIAN_POINT ( 'NONE',  ( 0.000000000000000000, -9.999999999999758415, -2.000000000000001776 ) ) ;
#694 = EDGE_CURVE ( 'NONE', #409, #576, #674, .T. ) ;
#695 = ORIENTED_EDGE ( 'NONE', *, *, #566, .T. ) ;
#696 = EDGE_LOOP ( 'NONE', ( #1082, #220, #306, #416 ) ) ;
#697 = PLANE ( 'NONE',  #605 ) ;
#698 = DIRECTION ( 'NONE',  ( -1.000000000000000000, 0.000000000000000000, 0.000000000000000000 ) ) ;
#699 = EDGE_LOOP ( 'NONE', ( #75, #315, #468, #253 ) ) ;
#700 = EDGE_LOOP ( 'NONE', ( #826, #837, #45, #76 ) ) ;
#701 = VERTEX_POINT ( 'NONE', #613 ) ;
#702 = CARTESIAN_POINT ( 'NONE',  ( 25.99999999999999645, 5.000000000000060396, -2.000000000000001776 ) ) ;
#703 = DIRECTION ( 'NONE',  ( 0.000000000000000000, 0.000000000000000000, -1.000000000000000000 ) ) ;
#704 = PRODUCT ( '0001', '0001', '', ( #347 ) ) ;
#705 = CIRCLE ( 'NONE', #425, 2.499999999999995115 ) ;
#706 = VERTEX_POINT ( 'NONE', #516 ) ;
#707 = DIRECTION ( 'NONE',  ( -1.000000000000000000, 0.000000000000000000, 0.000000000000000000 ) ) ;
#708 = ADVANCED_FACE ( 'NONE', ( #349 ), #328, .T. ) ;
#709 = CIRCLE ( 'NONE', #483, 1.499999999999997780 ) ;
#710 = AXIS2_PLACEMENT_3D ( 'NONE', #423, #38, #119 ) ;
#711 = LINE ( 'NONE', #461, #1035 ) ;
#712 = VECTOR ( 'NONE', #1085, 1000.000000000000000 ) ;
#713 = VERTEX_POINT ( 'NONE', #685 ) ;
#714 = FACE_OUTER_BOUND ( 'NONE', #739, .T. ) ;
#715 = EDGE_CURVE ( 'NONE', #252, #701, #527, .T. ) ;
#716 = CYLINDRICAL_SURFACE ( 'NONE', #265, 1.499999999999997780 ) ;
#717 = ORIENTED_EDGE ( 'NONE', *, *, #1066, .T. ) ;
#718 = CARTESIAN_POINT ( 'NONE',  ( -23.50000000000000000, 5.000000000000365041, -1.800000000000023803 ) ) ;
#719 = CARTESIAN_POINT ( 'NONE',  ( 1.000000000000014655, 0.000000000000000000, 0.000000000000000000 ) ) ;
#720 = LINE ( 'NONE', #971, #897 ) ;
#721 = EDGE_CURVE ( 'NONE', #828, #398, #780, .T. ) ;
#722 = CARTESIAN_POINT ( 'NONE',  ( -38.99999999999997868, 16.50000000000001421, -2.000000000000112799 ) ) ;
#723 = ORIENTED_EDGE ( 'NONE', *, *, #420, .T. ) ;
#724 = VECTOR ( 'NONE', #11, 1000.000000000000000 ) ;
#725 = DIRECTION ( 'NONE',  ( -1.000000000000000000, 0.000000000000000000, 0.000000000000000000 ) ) ;
#726 = AXIS2_PLACEMENT_3D ( 'NONE', #681, #255, #168 ) ;
#727 = CARTESIAN_POINT ( 'NONE',  ( -23.30000000000002203, 5.000000000000365041, -2.000000000000001776 ) ) ;
#728 = AXIS2_PLACEMENT_3D ( 'NONE', #702, #629, #873 ) ;
#729 = EDGE_CURVE ( 'NONE', #838, #167, #200, .T. ) ;
#730 = ORIENTED_EDGE ( 'NONE', *, *, #1030, .T. ) ;
#731 = CARTESIAN_POINT ( 'NONE',  ( -19.99999999999998934, 12.50000000000003908, 2.220446049250313081E-13 ) ) ;
#732 = CARTESIAN_POINT ( 'NONE',  ( 39.99999999999997868, 20.00000000000044764, -2.000000000000112799 ) ) ;
#733 = FACE_OUTER_BOUND ( 'NONE', #754, .T. ) ;
#734 = CARTESIAN_POINT ( 'NONE',  ( -19.99999999999998934, 16.50000000000001421, -2.000000000000112799 ) ) ;
#735 = LINE ( 'NONE', #574, #165 ) ;
#736 = ORIENTED_EDGE ( 'NONE', *, *, #222, .T. ) ;
#737 = LINE ( 'NONE', #399, #917 ) ;
#738 = CARTESIAN_POINT ( 'NONE',  ( -29.50000000000000000, 15.00000000000006928, -3.500000000000169642 ) ) ;
#739 = EDGE_LOOP ( 'NONE', ( #620, #280, #785, #122 ) ) ;
#740 = ORIENTED_EDGE ( 'NONE', *, *, #222, .F. ) ;
#741 = EDGE_CURVE ( 'NONE', #252, #706, #836, .T. ) ;
#742 = FACE_OUTER_BOUND ( 'NONE', #105, .T. ) ;
#743 = DIRECTION ( 'NONE',  ( 2.938735877055718117E-39, -1.000000000000000000, 0.000000000000000000 ) ) ;
#744 = CARTESIAN_POINT ( 'NONE',  ( -25.99999999999999645, 5.000000000000060396, -2.000000000000001776 ) ) ;
#745 = CIRCLE ( 'NONE', #833, 2.499999999999995115 ) ;
#746 = AXIS2_PLACEMENT_3D ( 'NONE', #1032, #277, #970 ) ;
#747 = VERTEX_POINT ( 'NONE', #761 ) ;
#748 = ORIENTED_EDGE ( 'NONE', *, *, #50, .T. ) ;
#749 = CARTESIAN_POINT ( 'NONE',  ( -18.99999999999998934, 12.50000000000023270, -2.000000000000001776 ) ) ;
#750 = DIRECTION ( 'NONE',  ( 0.000000000000000000, 0.000000000000000000, 1.000000000000000000 ) ) ;
#751 = EDGE_CURVE ( 'NONE', #118, #1012, #682, .T. ) ;
#752 = DIRECTION ( 'NONE',  ( 0.000000000000000000, 0.000000000000000000, -1.000000000000000000 ) ) ;
#753 = ORIENTED_EDGE ( 'NONE', *, *, #809, .T. ) ;
#754 = EDGE_LOOP ( 'NONE', ( #617, #611, #604, #325 ) ) ;
#755 = CYLINDRICAL_SURFACE ( 'NONE', #390, 2.499999999999995115 ) ;
#756 = ADVANCED_FACE ( 'NONE', ( #261 ), #437, .T. ) ;
#757 = EDGE_CURVE ( 'NONE', #1070, #679, #251, .T. ) ;
#758 = EDGE_LOOP ( 'NONE', ( #695, #588, #428, #486 ) ) ;
#759 = ORIENTED_EDGE ( 'NONE', *, *, #932, .F. ) ;
#760 = FACE_OUTER_BOUND ( 'NONE', #207, .T. ) ;
#761 = CARTESIAN_POINT ( 'NONE',  ( 1.000000000000028644, 13.00000000000023448, -3.500000000000058620 ) ) ;
#762 = AXIS2_PLACEMENT_3D ( 'NONE', #515, #787, #272 ) ;
#763 = EDGE_CURVE ( 'NONE', #303, #791, #770, .T. ) ;
#764 = VECTOR ( 'NONE', #1052, 1000.000000000000000 ) ;
#765 = ORIENTED_EDGE ( 'NONE', *, *, #59, .T. ) ;
#766 = AXIS2_PLACEMENT_3D ( 'NONE', #522, #590, #922 ) ;
#767 = ORIENTED_EDGE ( 'NONE', *, *, #1045, .T. ) ;
#768 = LINE ( 'NONE', #4, #641 ) ;
#769 = APPLICATION_PROTOCOL_DEFINITION ( 'draft international standard', 'automotive_design', 1998, #861 ) ;
#770 = LINE ( 'NONE', #774, #626 ) ;
#771 = CARTESIAN_POINT ( 'NONE',  ( -19.99999999999998934, 15.00000000000006928, -3.500000000000169642 ) ) ;
#772 = DIRECTION ( 'NONE',  ( 0.000000000000000000, 0.000000000000000000, -1.000000000000000000 ) ) ;
#773 = DIRECTION ( 'NONE',  ( -1.000000000000000000, 0.000000000000000000, 0.000000000000000000 ) ) ;
#774 = CARTESIAN_POINT ( 'NONE',  ( -19.99999999999998934, 16.50000000000034817, 2.220446049250313081E-13 ) ) ;
#775 = CARTESIAN_POINT ( 'NONE',  ( 39.99999999999997868, -19.99999999999958789, -2.000000000000001776 ) ) ;
#776 = DIRECTION ( 'NONE',  ( -1.000000000000000000, 8.802115415141641764E-14, 0.000000000000000000 ) ) ;
#777 = ORIENTED_EDGE ( 'NONE', *, *, #274, .F. ) ;
#778 = CARTESIAN_POINT ( 'NONE',  ( 28.69999999999996732, 5.000000000000365041, -2.000000000000001776 ) ) ;
#779 = EDGE_CURVE ( 'NONE', #1012, #342, #149, .T. ) ;
#780 = LINE ( 'NONE', #511, #539 ) ;
#781 = ORIENTED_EDGE ( 'NONE', *, *, #694, .F. ) ;
#782 = LINE ( 'NONE', #602, #266 ) ;
#783 = VECTOR ( 'NONE', #187, 1000.000000000000000 ) ;
#784 = LINE ( 'NONE', #857, #109 ) ;
#785 = ORIENTED_EDGE ( 'NONE', *, *, #876, .T. ) ;
#786 = VECTOR ( 'NONE', #46, 1000.000000000000000 ) ;
#787 = DIRECTION ( 'NONE',  ( 0.000000000000000000, 0.000000000000000000, 1.000000000000000000 ) ) ;
#788 = DIRECTION ( 'NONE',  ( 0.000000000000000000, 0.000000000000000000, -1.000000000000000000 ) ) ;
#789 = ADVANCED_FACE ( 'NONE', ( #851 ), #1091, .F. ) ;
#790 = ORIENTED_EDGE ( 'NONE', *, *, #643, .T. ) ;
#791 = VERTEX_POINT ( 'NONE', #204 ) ;
#792 = EDGE_CURVE ( 'NONE', #41, #161, #115, .T. ) ;
#793 = CARTESIAN_POINT ( 'NONE',  ( 1.000000000000028644, 16.50000000000048672, -3.500000000000058620 ) ) ;
#794 = ORIENTED_EDGE ( 'NONE', *, *, #763, .F. ) ;
#795 = DIRECTION ( 'NONE',  ( 0.000000000000000000, 0.000000000000000000, -1.000000000000000000 ) ) ;
#796 = EDGE_CURVE ( 'NONE', #237, #101, #94, .T. ) ;
#797 = ORIENTED_EDGE ( 'NONE', *, *, #8, .F. ) ;
#798 = CARTESIAN_POINT ( 'NONE',  ( -25.99999999999999645, 5.000000000000060396, -2.000000000000001776 ) ) ;
#799 = VECTOR ( 'NONE', #201, 1000.000000000000000 ) ;
#800 = VECTOR ( 'NONE', #1007, 1000.000000000000000 ) ;
#801 = DIRECTION ( 'NONE',  ( -1.000000000000000000, 0.000000000000000000, 0.000000000000000000 ) ) ;
#802 = CARTESIAN_POINT ( 'NONE',  ( 40.00000000000000711, 12.50000000000023270, -2.000000000000001776 ) ) ;
#803 = PRODUCT_DEFINITION_SHAPE ( 'NONE', 'NONE',  #85 ) ;
#804 = DIRECTION ( 'NONE',  ( 3.221869081074272412E-53, -1.096345236817342084E-14, -1.000000000000000000 ) ) ;
#805 = ADVANCED_FACE ( 'NONE', ( #470 ), #862, .F. ) ;
#806 = VERTEX_POINT ( 'NONE', #283 ) ;
#807 = CARTESIAN_POINT ( 'NONE',  ( 28.49999999999998934, 5.000000000000365041, -1.800000000000023803 ) ) ;
#808 = CARTESIAN_POINT ( 'NONE',  ( 23.50000000000000000, 5.000000000000365041, -1.800000000000023803 ) ) ;
#809 = EDGE_CURVE ( 'NONE', #411, #991, #44, .T. ) ;
#810 = DIRECTION ( 'NONE',  ( 0.000000000000000000, 0.000000000000000000, 1.000000000000000000 ) ) ;
#811 = EDGE_LOOP ( 'NONE', ( #502, #524, #639, #753 ) ) ;
#812 = DIRECTION ( 'NONE',  ( 8.673617379884036705E-17, -1.000000000000000000, 0.000000000000000000 ) ) ;
#813 = VECTOR ( 'NONE', #57, 1000.000000000000000 ) ;
#814 = AXIS2_PLACEMENT_3D ( 'NONE', #583, #593, #173 ) ;
#815 = CYLINDRICAL_SURFACE ( 'NONE', #408, 2.499999999999995115 ) ;
#816 = DIRECTION ( 'NONE',  ( -1.000000000000000000, 0.000000000000000000, 0.000000000000000000 ) ) ;
#817 = CIRCLE ( 'NONE', #354, 2.499999999999995115 ) ;
#818 = AXIS2_PLACEMENT_3D ( 'NONE', #693, #419, #341 ) ;
#819 = EDGE_LOOP ( 'NONE', ( #666, #379, #652, #943 ) ) ;
#820 = DIRECTION ( 'NONE',  ( 1.000000000000000000, 8.673617379884036705E-17, 0.000000000000000000 ) ) ;
#821 = DIRECTION ( 'NONE',  ( 0.000000000000000000, 0.000000000000000000, -1.000000000000000000 ) ) ;
#822 = CARTESIAN_POINT ( 'NONE',  ( -38.99999999999997868, 13.00000000000022027, -3.500000000000058620 ) ) ;
#823 = EDGE_CURVE ( 'NONE', #101, #237, #180, .T. ) ;
#824 = EDGE_LOOP ( 'NONE', ( #961, #736 ) ) ;
#825 = CARTESIAN_POINT ( 'NONE',  ( -38.99999999999997868, 16.50000000000045830, -3.500000000000058620 ) ) ;
#826 = ORIENTED_EDGE ( 'NONE', *, *, #78, .F. ) ;
#827 = ADVANCED_FACE ( 'NONE', ( #29 ), #863, .F. ) ;
#828 = VERTEX_POINT ( 'NONE', #625 ) ;
#829 = LINE ( 'NONE', #71, #125 ) ;
#830 = DIRECTION ( 'NONE',  ( 0.000000000000000000, 0.000000000000000000, -1.000000000000000000 ) ) ;
#831 = VECTOR ( 'NONE', #480, 1000.000000000000000 ) ;
#832 = FACE_OUTER_BOUND ( 'NONE', #172, .T. ) ;
#833 = AXIS2_PLACEMENT_3D ( 'NONE', #340, #509, #260 ) ;
#834 = EDGE_LOOP ( 'NONE', ( #994, #661, #157, #924 ) ) ;
#835 = ORIENTED_EDGE ( 'NONE', *, *, #1066, .F. ) ;
#836 = LINE ( 'NONE', #84, #336 ) ;
#837 = ORIENTED_EDGE ( 'NONE', *, *, #949, .T. ) ;
#838 = VERTEX_POINT ( 'NONE', #550 ) ;
#839 = LINE ( 'NONE', #606, #569 ) ;
#840 = EDGE_CURVE ( 'NONE', #496, #1024, #1026, .T. ) ;
#841 = ORIENTED_EDGE ( 'NONE', *, *, #209, .F. ) ;
#842 = EDGE_LOOP ( 'NONE', ( #205, #525 ) ) ;
#843 = CYLINDRICAL_SURFACE ( 'NONE', #146, 3.499999999999997780 ) ;
#844 = SHAPE_DEFINITION_REPRESENTATION ( #803, #257 ) ;
#845 = CARTESIAN_POINT ( 'NONE',  ( -39.00000000000000711, 12.74670786120513100, -2.000000000000001776 ) ) ;
#846 = AXIS2_PLACEMENT_3D ( 'NONE', #9, #514, #999 ) ;
#847 = VECTOR ( 'NONE', #363, 1000.000000000000000 ) ;
#848 =( NAMED_UNIT ( * ) SI_UNIT ( $, .STERADIAN. ) SOLID_ANGLE_UNIT ( ) );
#849 = CARTESIAN_POINT ( 'NONE',  ( 1.000000000000014655, 15.00000000000006928, -3.500000000000169642 ) ) ;
#850 = APPLICATION_PROTOCOL_DEFINITION ( 'draft international standard', 'automotive_design', 1998, #278 ) ;
#851 = FACE_OUTER_BOUND ( 'NONE', #975, .T. ) ;
#852 = EDGE_LOOP ( 'NONE', ( #555, #667, #113, #765 ) ) ;
#853 = ADVANCED_FACE ( 'NONE', ( #381 ), #716, .F. ) ;
#854 = ORIENTED_EDGE ( 'NONE', *, *, #675, .F. ) ;
#855 = CARTESIAN_POINT ( 'NONE',  ( 1.000000000000014655, 16.50000000000004263, -2.000000000000112799 ) ) ;
#856 = DIRECTION ( 'NONE',  ( -9.130123557772685590E-17, -1.000000000000000000, 1.367361755389411020E-63 ) ) ;
#857 = CARTESIAN_POINT ( 'NONE',  ( -19.99999999999998934, 15.00000000000006928, -3.500000000000169642 ) ) ;
#858 = ORIENTED_EDGE ( 'NONE', *, *, #370, .F. ) ;
#859 = EDGE_CURVE ( 'NONE', #991, #303, #711, .T. ) ;
#860 = DIRECTION ( 'NONE',  ( -0.000000000000000000, -0.000000000000000000, 1.000000000000000000 ) ) ;
#861 = APPLICATION_CONTEXT ( 'automotive_design' ) ;
#862 = CYLINDRICAL_SURFACE ( 'NONE', #654, 2.499999999999995115 ) ;
#863 = CONICAL_SURFACE ( 'NONE', #500, 2.499999999999993783, 0.7853981633974492782 ) ;
#864 = VECTOR ( 'NONE', #441, 999.9999999999998863 ) ;
#865 = DIRECTION ( 'NONE',  ( -1.000000000000000000, -2.938735877055719422E-39, -0.000000000000000000 ) ) ;
#866 = ORIENTED_EDGE ( 'NONE', *, *, #763, .T. ) ;
#867 = AXIS2_PLACEMENT_3D ( 'NONE', #65, #234, #58 ) ;
#868 = CARTESIAN_POINT ( 'NONE',  ( -40.00000000000000711, 20.00000000000044764, -2.000000000000112799 ) ) ;
#869 = CARTESIAN_POINT ( 'NONE',  ( 1.000000000000028644, 16.50000000000034817, 2.220446049250313081E-13 ) ) ;
#870 = EDGE_CURVE ( 'NONE', #1024, #919, #1041, .T. ) ;
#871 = DIRECTION ( 'NONE',  ( -1.000000000000000000, -2.938735877055719422E-39, -0.000000000000000000 ) ) ;
#872 = EDGE_LOOP ( 'NONE', ( #1059, #137, #508, #158 ) ) ;
#873 = DIRECTION ( 'NONE',  ( -1.000000000000000000, 0.000000000000000000, 0.000000000000000000 ) ) ;
#874 = DIRECTION ( 'NONE',  ( 1.000000000000000000, 2.938735877055719422E-39, 0.000000000000000000 ) ) ;
#875 = EDGE_LOOP ( 'NONE', ( #87, #723, #435, #147 ) ) ;
#876 = EDGE_CURVE ( 'NONE', #1012, #713, #619, .T. ) ;
#877 = ORIENTED_EDGE ( 'NONE', *, *, #59, .F. ) ;
#878 = CARTESIAN_POINT ( 'NONE',  ( 1.000000000000014655, 16.50000000000004263, -2.000000000000112799 ) ) ;
#879 = DIRECTION ( 'NONE',  ( 5.135813106666338011E-31, 0.000000000000000000, 1.000000000000000000 ) ) ;
#880 = VECTOR ( 'NONE', #33, 1000.000000000000227 ) ;
#881 = DIRECTION ( 'NONE',  ( -1.000000000000000000, 0.000000000000000000, 0.000000000000000000 ) ) ;
#882 = VECTOR ( 'NONE', #77, 1000.000000000000000 ) ;
#883 = CARTESIAN_POINT ( 'NONE',  ( -19.99999999999998934, 15.50000000000000000, -2.000000000000112799 ) ) ;
#884 = ORIENTED_EDGE ( 'NONE', *, *, #188, .T. ) ;
#885 = FACE_BOUND ( 'NONE', #842, .T. ) ;
#886 = EDGE_CURVE ( 'NONE', #273, #828, #449, .T. ) ;
#887 = CARTESIAN_POINT ( 'NONE',  ( 1.000000000000014655, 16.50000000000004263, -2.000000000000112799 ) ) ;
#888 = ORIENTED_EDGE ( 'NONE', *, *, #980, .F. ) ;
#889 = FACE_BOUND ( 'NONE', #241, .T. ) ;
#890 = CARTESIAN_POINT ( 'NONE',  ( 1.000000000000014655, 12.50000000000051159, 0.0009999999999177333621 ) ) ;
#891 = EDGE_LOOP ( 'NONE', ( #647, #544, #513, #740 ) ) ;
#892 = CARTESIAN_POINT ( 'NONE',  ( 0.000000000000000000, -9.999999999999980460, 2.220446049250313081E-13 ) ) ;
#893 = CONICAL_SURFACE ( 'NONE', #407, 2.499999999999993783, 0.7853981633974492782 ) ;
#894 = AXIS2_PLACEMENT_3D ( 'NONE', #150, #164, #1073 ) ;
#895 = FACE_OUTER_BOUND ( 'NONE', #1005, .T. ) ;
#896 = FILL_AREA_STYLE ('',( #651 ) ) ;
#897 = VECTOR ( 'NONE', #557, 1000.000000000000000 ) ;
#898 = DIRECTION ( 'NONE',  ( -0.000000000000000000, 0.000000000000000000, -1.000000000000000000 ) ) ;
#899 = AXIS2_PLACEMENT_3D ( 'NONE', #630, #804, #130 ) ;
#900 = VERTEX_POINT ( 'NONE', #124 ) ;
#901 = DIRECTION ( 'NONE',  ( 1.734723475976806601E-16, -1.000000000000000000, 0.000000000000000000 ) ) ;
#902 = LINE ( 'NONE', #890, #67 ) ;
#903 = DIRECTION ( 'NONE',  ( -1.000000000000000000, 0.000000000000000000, 0.000000000000000000 ) ) ;
#904 = EDGE_CURVE ( 'NONE', #342, #1012, #585, .T. ) ;
#905 = VERTEX_POINT ( 'NONE', #378 ) ;
#906 = ORIENTED_EDGE ( 'NONE', *, *, #492, .T. ) ;
#907 = LINE ( 'NONE', #413, #34 ) ;
#908 = CARTESIAN_POINT ( 'NONE',  ( 25.99999999999999645, 5.000000000000060396, -2.000000000000001776 ) ) ;
#909 = ORIENTED_EDGE ( 'NONE', *, *, #1049, .T. ) ;
#910 = ADVANCED_FACE ( 'NONE', ( #1048 ), #893, .F. ) ;
#911 = ORIENTED_EDGE ( 'NONE', *, *, #523, .F. ) ;
#912 = CARTESIAN_POINT ( 'NONE',  ( 2.699999999999972200, -9.999999999999994671, -2.000000000000001776 ) ) ;
#913 = CARTESIAN_POINT ( 'NONE',  ( 19.99999999999998934, 16.50000000000048672, -3.500000000000058620 ) ) ;
#914 = CIRCLE ( 'NONE', #968, 2.699999999999980194 ) ;
#915 = DIRECTION ( 'NONE',  ( -1.000000000000000000, -5.877471754111437540E-39, 0.000000000000000000 ) ) ;
#916 = VECTOR ( 'NONE', #528, 1000.000000000000000 ) ;
#917 = VECTOR ( 'NONE', #645, 999.9999999999998863 ) ;
#918 = VERTEX_POINT ( 'NONE', #634 ) ;
#919 = VERTEX_POINT ( 'NONE', #869 ) ;
#920 = ADVANCED_FACE ( 'NONE', ( #296 ), #279, .F. ) ;
#921 = DIRECTION ( 'NONE',  ( -1.000000000000000000, -5.877471754111437540E-39, 0.000000000000000000 ) ) ;
#922 = DIRECTION ( 'NONE',  ( -1.000000000000000000, 0.000000000000000000, 0.000000000000000000 ) ) ;
#923 = ORIENTED_EDGE ( 'NONE', *, *, #15, .T. ) ;
#924 = ORIENTED_EDGE ( 'NONE', *, *, #587, .T. ) ;
#925 = CARTESIAN_POINT ( 'NONE',  ( 2.499999999999993783, -9.999999999999758415, -1.800000000000023803 ) ) ;
#926 = PRODUCT_RELATED_PRODUCT_CATEGORY ( 'part', '', ( #704 ) ) ;
#927 = CARTESIAN_POINT ( 'NONE',  ( -19.99999999999998934, 15.50000000000000000, -2.000000000000112799 ) ) ;
#928 = LINE ( 'NONE', #941, #783 ) ;
#929 = ORIENTED_EDGE ( 'NONE', *, *, #39, .T. ) ;
#930 = CARTESIAN_POINT ( 'NONE',  ( -19.99999999999998934, 16.50000000000034817, 2.220446049250313081E-13 ) ) ;
#931 = AXIS2_PLACEMENT_3D ( 'NONE', #40, #966, #294 ) ;
#932 = EDGE_CURVE ( 'NONE', #1065, #1070, #134, .T. ) ;
#933 = CIRCLE ( 'NONE', #537, 1.499999999999994449 ) ;
#934 = VECTOR ( 'NONE', #208, 1000.000000000000227 ) ;
#935 = DIRECTION ( 'NONE',  ( -1.000000000000000000, -2.938735877055719422E-39, -0.000000000000000000 ) ) ;
#936 =( LENGTH_UNIT ( ) NAMED_UNIT ( * ) SI_UNIT ( .MILLI., .METRE. ) );
#937 = ORIENTED_EDGE ( 'NONE', *, *, #329, .F. ) ;
#938 = CARTESIAN_POINT ( 'NONE',  ( -38.99999999999997868, 16.50000000000045830, -3.500000000000058620 ) ) ;
#939 = CARTESIAN_POINT ( 'NONE',  ( 19.99999999999998934, 16.50000000000048672, -3.500000000000058620 ) ) ;
#940 = EDGE_CURVE ( 'NONE', #905, #964, #1000, .T. ) ;
#941 = CARTESIAN_POINT ( 'NONE',  ( 19.99999999999998934, 16.50000000000034817, 2.220446049250313081E-13 ) ) ;
#942 = CARTESIAN_POINT ( 'NONE',  ( 1.000000000000014655, 16.50000000000048672, -3.500000000000058620 ) ) ;
#943 = ORIENTED_EDGE ( 'NONE', *, *, #876, .F. ) ;
#944 = DIRECTION ( 'NONE',  ( -1.000000000000000000, -2.938735877055719422E-39, -0.000000000000000000 ) ) ;
#945 = CARTESIAN_POINT ( 'NONE',  ( 23.50000000000000000, 5.000000000000060396, -2.000000000000001776 ) ) ;
#946 = LINE ( 'NONE', #444, #285 ) ;
#947 = CARTESIAN_POINT ( 'NONE',  ( 35.00000000000000000, -19.99999999999958789, -2.000000000000001776 ) ) ;
#948 = CARTESIAN_POINT ( 'NONE',  ( 19.99999999999998934, 0.000000000000000000, 0.000000000000000000 ) ) ;
#949 = EDGE_CURVE ( 'NONE', #493, #342, #990, .T. ) ;
#950 = CARTESIAN_POINT ( 'NONE',  ( 19.99999999999998934, 15.00000000000006928, -3.500000000000169642 ) ) ;
#951 = CARTESIAN_POINT ( 'NONE',  ( -25.99999999999999645, 5.000000000000365041, -1.800000000000023803 ) ) ;
#952 = VECTOR ( 'NONE', #743, 1000.000000000000000 ) ;
#953 = VECTOR ( 'NONE', #530, 1000.000000000000000 ) ;
#954 = CARTESIAN_POINT ( 'NONE',  ( -39.99999999999997868, -14.99999999999976374, -2.000000000000112799 ) ) ;
#955 = CIRCLE ( 'NONE', #691, 2.499999999999993783 ) ;
#956 = AXIS2_PLACEMENT_3D ( 'NONE', #979, #53, #226 ) ;
#957 = CARTESIAN_POINT ( 'NONE',  ( -28.49999999999998934, 5.000000000000365041, -1.800000000000023803 ) ) ;
#958 = ADVANCED_FACE ( 'NONE', ( #400 ), #385, .T. ) ;
#959 = CARTESIAN_POINT ( 'NONE',  ( -18.99999999999998934, 12.50000000000003908, 2.220446049250313081E-13 ) ) ;
#960 = CARTESIAN_POINT ( 'NONE',  ( -19.99999999999998934, 0.000000000000000000, 0.000000000000000000 ) ) ;
#961 = ORIENTED_EDGE ( 'NONE', *, *, #469, .T. ) ;
#962 = DIRECTION ( 'NONE',  ( 0.000000000000000000, 0.000000000000000000, -1.000000000000000000 ) ) ;
#963 = CARTESIAN_POINT ( 'NONE',  ( -19.99999999999998934, 16.50000000000045830, -3.500000000000058620 ) ) ;
#964 = VERTEX_POINT ( 'NONE', #97 ) ;
#965 = DIRECTION ( 'NONE',  ( 2.938735877055718117E-39, -1.000000000000000000, 0.000000000000000000 ) ) ;
#966 = DIRECTION ( 'NONE',  ( 0.000000000000000000, 0.000000000000000000, -1.000000000000000000 ) ) ;
#967 = EDGE_CURVE ( 'NONE', #301, #1009, #344, .T. ) ;
#968 = AXIS2_PLACEMENT_3D ( 'NONE', #529, #7, #776 ) ;
#969 = EDGE_LOOP ( 'NONE', ( #1027, #1046, #3, #858 ) ) ;
#970 = DIRECTION ( 'NONE',  ( -1.000000000000000000, 0.000000000000000000, 0.000000000000000000 ) ) ;
#971 = CARTESIAN_POINT ( 'NONE',  ( 20.99999999999998934, 12.50000000000003908, 2.220446049250313081E-13 ) ) ;
#972 = EDGE_CURVE ( 'NONE', #88, #463, #1069, .T. ) ;
#973 = ORIENTED_EDGE ( 'NONE', *, *, #517, .F. ) ;
#974 = DIRECTION ( 'NONE',  ( 0.000000000000000000, 0.000000000000000000, -1.000000000000000000 ) ) ;
#975 = EDGE_LOOP ( 'NONE', ( #247, #453, #658, #132 ) ) ;
#976 = FACE_OUTER_BOUND ( 'NONE', #969, .T. ) ;
#977 = FACE_BOUND ( 'NONE', #1, .T. ) ;
#978 = EDGE_LOOP ( 'NONE', ( #982, #1061, #571, #345 ) ) ;
#979 = CARTESIAN_POINT ( 'NONE',  ( -18.99999999999998934, 12.50000000000051159, 0.0009999999999177333621 ) ) ;
#980 = EDGE_CURVE ( 'NONE', #676, #791, #1074, .T. ) ;
#981 = DIRECTION ( 'NONE',  ( -1.000000000000000000, -2.938735877055719422E-39, 0.000000000000000000 ) ) ;
#982 = ORIENTED_EDGE ( 'NONE', *, *, #24, .F. ) ;
#983 = DIRECTION ( 'NONE',  ( 0.000000000000000000, 0.000000000000000000, -1.000000000000000000 ) ) ;
#984 = CONICAL_SURFACE ( 'NONE', #551, 2.499999999999995115, 0.7853981633974504994 ) ;
#985 = DIRECTION ( 'NONE',  ( 0.000000000000000000, 0.000000000000000000, -1.000000000000000000 ) ) ;
#986 = ADVANCED_FACE ( 'NONE', ( #135 ), #573, .F. ) ;
#987 = VECTOR ( 'NONE', #965, 1000.000000000000000 ) ;
#988 = DIRECTION ( 'NONE',  ( -0.000000000000000000, -0.000000000000000000, 1.000000000000000000 ) ) ;
#989 = ORIENTED_EDGE ( 'NONE', *, *, #859, .F. ) ;
#990 = LINE ( 'NONE', #497, #374 ) ;
#991 = VERTEX_POINT ( 'NONE', #734 ) ;
#992 = DIRECTION ( 'NONE',  ( -1.000000000000000000, 0.000000000000000000, 0.000000000000000000 ) ) ;
#993 = DIRECTION ( 'NONE',  ( -1.000000000000000000, 0.000000000000000000, 0.000000000000000000 ) ) ;
#994 = ORIENTED_EDGE ( 'NONE', *, *, #1045, .F. ) ;
#995 = ORIENTED_EDGE ( 'NONE', *, *, #440, .T. ) ;
#996 = EDGE_CURVE ( 'NONE', #443, #398, #490, .T. ) ;
#997 = EDGE_LOOP ( 'NONE', ( #1031, #767, #68, #797 ) ) ;
#998 = EDGE_LOOP ( 'NONE', ( #1088, #152, #163, #417 ) ) ;
#999 = DIRECTION ( 'NONE',  ( -1.000000000000000000, -1.137207612029248649E-13, 0.000000000000000000 ) ) ;
#1000 = CIRCLE ( 'NONE', #640, 2.499999999999995115 ) ;
#1001 = DIRECTION ( 'NONE',  ( 0.000000000000000000, 0.000000000000000000, -1.000000000000000000 ) ) ;
#1002 = VECTOR ( 'NONE', #262, 1000.000000000000000 ) ;
#1003 = CIRCLE ( 'NONE', #728, 2.699999999999980194 ) ;
#1004 = ORIENTED_EDGE ( 'NONE', *, *, #548, .T. ) ;
#1005 = EDGE_LOOP ( 'NONE', ( #575, #592, #657, #421 ) ) ;
#1006 = CARTESIAN_POINT ( 'NONE',  ( -35.00000000000000000, -19.99999999999998934, 2.220446049250313081E-13 ) ) ;
#1007 = DIRECTION ( 'NONE',  ( 5.135813136053697657E-31, -1.000000000000000000, 1.096345236817342084E-14 ) ) ;
#1008 = DIRECTION ( 'NONE',  ( -1.000000000000000000, 0.000000000000000000, 0.000000000000000000 ) ) ;
#1009 = VERTEX_POINT ( 'NONE', #578 ) ;
#1010 = CARTESIAN_POINT ( 'NONE',  ( -39.99999999999997868, -14.99999999999998579, 3.330669073875469621E-13 ) ) ;
#1011 = ADVANCED_FACE ( 'NONE', ( #142 ), #309, .F. ) ;
#1012 = VERTEX_POINT ( 'NONE', #808 ) ;
#1013 = ORIENTED_EDGE ( 'NONE', *, *, #940, .T. ) ;
#1014 = FACE_OUTER_BOUND ( 'NONE', #872, .T. ) ;
#1015 = EDGE_CURVE ( 'NONE', #1024, #463, #902, .T. ) ;
#1016 = COLOUR_RGB ( '',0.7921568627450980005, 0.8196078431372548767, 0.9333333333333333481 ) ;
#1017 = AXIS2_PLACEMENT_3D ( 'NONE', #825, #981, #304 ) ;
#1018 = CIRCLE ( 'NONE', #286, 2.699999999999980194 ) ;
#1019 = ORIENTED_EDGE ( 'NONE', *, *, #600, .T. ) ;
#1020 = LINE ( 'NONE', #849, #882 ) ;
#1021 = ORIENTED_EDGE ( 'NONE', *, *, #823, .F. ) ;
#1022 = EDGE_CURVE ( 'NONE', #1076, #706, #907, .T. ) ;
#1023 = CARTESIAN_POINT ( 'NONE',  ( -38.99999999999997868, 16.50000000000045830, -3.500000000000058620 ) ) ;
#1024 = VERTEX_POINT ( 'NONE', #395 ) ;
#1025 = CARTESIAN_POINT ( 'NONE',  ( -2.499999999999993783, -9.999999999999980460, 2.220446049250313081E-13 ) ) ;
#1026 = LINE ( 'NONE', #959, #51 ) ;
#1027 = ORIENTED_EDGE ( 'NONE', *, *, #169, .F. ) ;
#1028 = MANIFOLD_SOLID_BREP ( 'Chamfer1', #689 ) ;
#1029 = DIRECTION ( 'NONE',  ( -2.938735877055718117E-39, 1.000000000000000000, 0.000000000000000000 ) ) ;
#1030 = EDGE_CURVE ( 'NONE', #964, #905, #705, .T. ) ;
#1031 = ORIENTED_EDGE ( 'NONE', *, *, #940, .F. ) ;
#1032 = CARTESIAN_POINT ( 'NONE',  ( 25.99999999999999645, 5.000000000000365041, -1.800000000000023803 ) ) ;
#1033 = DIRECTION ( 'NONE',  ( -1.000000000000000000, 0.000000000000000000, 0.000000000000000000 ) ) ;
#1034 = CARTESIAN_POINT ( 'NONE',  ( 2.499999999999993783, -9.999999999999758415, 2.220446049250313081E-13 ) ) ;
#1035 = VECTOR ( 'NONE', #879, 1000.000000000000000 ) ;
#1036 = CIRCLE ( 'NONE', #181, 5.000000000000000888 ) ;
#1037 = AXIS2_PLACEMENT_3D ( 'NONE', #221, #133, #563 ) ;
#1038 = EDGE_LOOP ( 'NONE', ( #478, #628, #777, #66 ) ) ;
#1039 = VECTOR ( 'NONE', #120, 1000.000000000000000 ) ;
#1040 = CARTESIAN_POINT ( 'NONE',  ( -35.00000000000000000, -14.99999999999976374, -2.000000000000112799 ) ) ;
#1041 = LINE ( 'NONE', #719, #687 ) ;
#1042 = ORIENTED_EDGE ( 'NONE', *, *, #870, .T. ) ;
#1043 = DIRECTION ( 'NONE',  ( 1.000000000000000000, 5.877471754111437540E-39, 0.000000000000000000 ) ) ;
#1044 = CARTESIAN_POINT ( 'NONE',  ( 0.000000000000000000, -9.999999999999994671, -1.800000000000023803 ) ) ;
#1045 = EDGE_CURVE ( 'NONE', #905, #806, #434, .T. ) ;
#1046 = ORIENTED_EDGE ( 'NONE', *, *, #404, .T. ) ;
#1047 = LINE ( 'NONE', #295, #467 ) ;
#1048 = FACE_OUTER_BOUND ( 'NONE', #686, .T. ) ;
#1049 = EDGE_CURVE ( 'NONE', #88, #41, #567, .T. ) ;
#1050 = MECHANICAL_DESIGN_GEOMETRIC_PRESENTATION_REPRESENTATION (  '', ( #213 ), #622 ) ;
#1051 = VERTEX_POINT ( 'NONE', #189 ) ;
#1052 = DIRECTION ( 'NONE',  ( 2.938735877055718117E-39, -1.000000000000000000, 0.000000000000000000 ) ) ;
#1053 = CIRCLE ( 'NONE', #199, 3.499999999999998668 ) ;
#1054 = AXIS2_PLACEMENT_3D ( 'NONE', #136, #131, #471 ) ;
#1055 = ORIENTED_EDGE ( 'NONE', *, *, #188, .F. ) ;
#1056 = DIRECTION ( 'NONE',  ( 0.000000000000000000, 0.000000000000000000, -1.000000000000000000 ) ) ;
#1057 = DIRECTION ( 'NONE',  ( 2.938735877055718117E-39, -1.000000000000000000, 0.000000000000000000 ) ) ;
#1058 = EDGE_CURVE ( 'NONE', #167, #838, #914, .T. ) ;
#1059 = ORIENTED_EDGE ( 'NONE', *, *, #949, .F. ) ;
#1060 = CARTESIAN_POINT ( 'NONE',  ( 19.99999999999998934, 16.50000000000034817, 2.220446049250313081E-13 ) ) ;
#1061 = ORIENTED_EDGE ( 'NONE', *, *, #1081, .F. ) ;
#1062 = DIRECTION ( 'NONE',  ( -1.000000000000000000, 0.000000000000000000, 0.000000000000000000 ) ) ;
#1063 = CARTESIAN_POINT ( 'NONE',  ( -25.99999999999999645, 5.000000000000254019, 2.220446049250313081E-13 ) ) ;
#1064 = CARTESIAN_POINT ( 'NONE',  ( 0.000000000000000000, 0.000000000000000000, 0.000000000000000000 ) ) ;
#1065 = VERTEX_POINT ( 'NONE', #243 ) ;
#1066 = EDGE_CURVE ( 'NONE', #27, #1083, #784, .T. ) ;
#1067 = DIRECTION ( 'NONE',  ( 1.000000000000000000, 5.877471754111437540E-39, 0.000000000000000000 ) ) ;
#1068 = DIRECTION ( 'NONE',  ( 3.221869081074272412E-53, -1.096345236817342084E-14, -1.000000000000000000 ) ) ;
#1069 = LINE ( 'NONE', #887, #952 ) ;
#1070 = VERTEX_POINT ( 'NONE', #19 ) ;
#1071 = ORIENTED_EDGE ( 'NONE', *, *, #348, .T. ) ;
#1072 = VECTOR ( 'NONE', #56, 1000.000000000000000 ) ;
#1073 = DIRECTION ( 'NONE',  ( 0.000000000000000000, 0.000000000000000000, 1.000000000000000000 ) ) ;
#1074 = LINE ( 'NONE', #224, #447 ) ;
#1075 = CIRCLE ( 'NONE', #316, 2.499999999999995115 ) ;
#1076 = VERTEX_POINT ( 'NONE', #947 ) ;
#1077 = ORIENTED_EDGE ( 'NONE', *, *, #1015, .F. ) ;
#1078 = DIRECTION ( 'NONE',  ( -1.000000000000000000, 9.130123557772694219E-17, 9.244463733058732095E-33 ) ) ;
#1079 = SURFACE_SIDE_STYLE ('',( #151 ) ) ;
#1080 = CARTESIAN_POINT ( 'NONE',  ( -19.99999999999998934, 16.50000000000045830, -3.500000000000058620 ) ) ;
#1081 = EDGE_CURVE ( 'NONE', #25, #512, #466, .T. ) ;
#1082 = ORIENTED_EDGE ( 'NONE', *, *, #39, .F. ) ;
#1083 = VERTEX_POINT ( 'NONE', #343 ) ;
#1084 = LINE ( 'NONE', #855, #953 ) ;
#1085 = DIRECTION ( 'NONE',  ( 0.000000000000000000, 0.000000000000000000, -1.000000000000000000 ) ) ;
#1086 = EDGE_CURVE ( 'NONE', #900, #301, #104, .T. ) ;
#1087 = ORIENTED_EDGE ( 'NONE', *, *, #792, .T. ) ;
#1088 = ORIENTED_EDGE ( 'NONE', *, *, #840, .T. ) ;
#1089 = CARTESIAN_POINT ( 'NONE',  ( -28.69999999999996732, 5.000000000000365041, -2.000000000000001776 ) ) ;
#1090 = AXIS2_PLACEMENT_3D ( 'NONE', #565, #561, #816 ) ;
#1091 = PLANE ( 'NONE',  #899 ) ;
#1092 = VECTOR ( 'NONE', #28, 1000.000000000000000 ) ;
#1093 = VECTOR ( 'NONE', #432, 1000.000000000000000 ) ;
ENDSEC;
END-ISO-10303-21;
