ISO-10303-21;
HEADER;
FILE_DESCRIPTION (( 'STEP AP214' ),
    '1' );
FILE_NAME ('0002.STEP',
    '2025-08-24T23:59:33',
    ( '' ),
    ( '' ),
    'SwSTEP 2.0',
    'SolidWorks 2025',
    '' );
FILE_SCHEMA (( 'AUTOMOTIVE_DESIGN' ));
ENDSEC;

DATA;
#1 = CARTESIAN_POINT ( 'NONE',  ( 0.000000000000000000, 0.000000000000000000, 1.000000000000000888 ) ) ;
#2 = CARTESIAN_POINT ( 'NONE',  ( -1.400000000000456213, 0.000000000000000000, 79.00000000000001421 ) ) ;
#3 = EDGE_CURVE ( 'NONE', #15, #97, #86, .T. ) ;
#4 =( GEOMETRIC_REPRESENTATION_CONTEXT ( 3 ) GLOBAL_UNCERTAINTY_ASSIGNED_CONTEXT ( ( #204 ) ) GLOBAL_UNIT_ASSIGNED_CONTEXT ( ( #28, #126, #10 ) ) REPRESENTATION_CONTEXT ( 'NONE', 'WORKASPACE' ) );
#5 = CARTESIAN_POINT ( 'NONE',  ( 3.500000000000000000, 4.286263797015736595E-16, 0.000000000000000000 ) ) ;
#6 = AXIS2_PLACEMENT_3D ( 'NONE', #149, #197, #180 ) ;
#7 = PRODUCT_RELATED_PRODUCT_CATEGORY ( 'part', '', ( #13 ) ) ;
#8 = DIRECTION ( 'NONE',  ( 0.000000000000000000, 0.000000000000000000, 1.000000000000000000 ) ) ;
#9 = ORIENTED_EDGE ( 'NONE', *, *, #123, .F. ) ;
#10 =( NAMED_UNIT ( * ) SI_UNIT ( $, .STERADIAN. ) SOLID_ANGLE_UNIT ( ) );
#11 = LINE ( 'NONE', #169, #124 ) ;
#12 = EDGE_CURVE ( 'NONE', #15, #53, #181, .T. ) ;
#13 = PRODUCT ( '0002', '0002', '', ( #185 ) ) ;
#14 =( NAMED_UNIT ( * ) SI_UNIT ( $, .STERADIAN. ) SOLID_ANGLE_UNIT ( ) );
#15 = VERTEX_POINT ( 'NONE', #184 ) ;
#16 = EDGE_CURVE ( 'NONE', #53, #141, #248, .T. ) ;
#17 = DIRECTION ( 'NONE',  ( -1.000000000000000000, 0.000000000000000000, 0.000000000000000000 ) ) ;
#18 = AXIS2_PLACEMENT_3D ( 'NONE', #46, #219, #120 ) ;
#19 = FACE_OUTER_BOUND ( 'NONE', #213, .T. ) ;
#20 = ORIENTED_EDGE ( 'NONE', *, *, #56, .F. ) ;
#21 = EDGE_LOOP ( 'NONE', ( #95, #232 ) ) ;
#22 = VECTOR ( 'NONE', #186, 1000.000000000000000 ) ;
#23 = CARTESIAN_POINT ( 'NONE',  ( 0.000000000000000000, 0.000000000000000000, 0.000000000000000000 ) ) ;
#24 = DIRECTION ( 'NONE',  ( 0.000000000000000000, 0.000000000000000000, 1.000000000000000000 ) ) ;
#25 = PRODUCT_DEFINITION_FORMATION_WITH_SPECIFIED_SOURCE ( 'ANY', '', #13, .NOT_KNOWN. ) ;
#26 = CARTESIAN_POINT ( 'NONE',  ( 0.000000000000000000, 0.000000000000000000, 1.000000000000000888 ) ) ;
#27 = FILL_AREA_STYLE_COLOUR ( '', #33 ) ;
#28 =( LENGTH_UNIT ( ) NAMED_UNIT ( * ) SI_UNIT ( .MILLI., .METRE. ) );
#29 = FACE_OUTER_BOUND ( 'NONE', #152, .T. ) ;
#30 = ORIENTED_EDGE ( 'NONE', *, *, #60, .F. ) ;
#31 = AXIS2_PLACEMENT_3D ( 'NONE', #26, #8, #103 ) ;
#32 = ORIENTED_EDGE ( 'NONE', *, *, #150, .F. ) ;
#33 = COLOUR_RGB ( '',0.7921568627450980005, 0.8196078431372548767, 0.9333333333333333481 ) ;
#34 = DIRECTION ( 'NONE',  ( -1.000000000000000000, 0.000000000000000000, 0.000000000000000000 ) ) ;
#35 = ORIENTED_EDGE ( 'NONE', *, *, #16, .T. ) ;
#36 = APPLICATION_CONTEXT ( 'automotive_design' ) ;
#37 = CARTESIAN_POINT ( 'NONE',  ( -1.400000000000456213, 0.000000000000000000, 79.00000000000001421 ) ) ;
#38 = ORIENTED_EDGE ( 'NONE', *, *, #110, .F. ) ;
#39 = EDGE_CURVE ( 'NONE', #89, #57, #55, .T. ) ;
#40 = ORIENTED_EDGE ( 'NONE', *, *, #227, .T. ) ;
#41 = EDGE_LOOP ( 'NONE', ( #70, #233, #35, #176 ) ) ;
#42 = CIRCLE ( 'NONE', #115, 1.500000000000000222 ) ;
#43 = DIRECTION ( 'NONE',  ( 1.000000000000000000, 0.000000000000000000, 0.000000000000000000 ) ) ;
#44 = VECTOR ( 'NONE', #241, 1000.000000000000000 ) ;
#45 = DIRECTION ( 'NONE',  ( -1.000000000000000000, 0.000000000000000000, 0.000000000000000000 ) ) ;
#46 = CARTESIAN_POINT ( 'NONE',  ( 0.000000000000000000, 0.000000000000000000, 0.000000000000000000 ) ) ;
#47 = CYLINDRICAL_SURFACE ( 'NONE', #144, 3.500000000000000000 ) ;
#48 = DIRECTION ( 'NONE',  ( 1.000000000000000000, 0.000000000000000000, 0.000000000000000000 ) ) ;
#49 = PLANE ( 'NONE',  #167 ) ;
#50 = DIRECTION ( 'NONE',  ( 0.000000000000000000, 0.000000000000000000, 1.000000000000000000 ) ) ;
#51 = CARTESIAN_POINT ( 'NONE',  ( -4.440892098500626162E-13, 0.000000000000000000, 78.90000000000001990 ) ) ;
#52 = CARTESIAN_POINT ( 'NONE',  ( 0.000000000000000000, 0.000000000000000000, 0.000000000000000000 ) ) ;
#53 = VERTEX_POINT ( 'NONE', #5 ) ;
#54 = CARTESIAN_POINT ( 'NONE',  ( 1.499999999999556133, 1.836970198721030181E-16, 79.00000000000001421 ) ) ;
#55 = CIRCLE ( 'NONE', #155, 1.500000000000000222 ) ;
#56 = EDGE_CURVE ( 'NONE', #243, #136, #134, .T. ) ;
#57 = VERTEX_POINT ( 'NONE', #99 ) ;
#58 = DIRECTION ( 'NONE',  ( 1.000000000000000000, 0.000000000000000000, 0.000000000000000000 ) ) ;
#59 = AXIS2_PLACEMENT_3D ( 'NONE', #66, #143, #83 ) ;
#60 = EDGE_CURVE ( 'NONE', #147, #125, #42, .T. ) ;
#61 = SURFACE_STYLE_FILL_AREA ( #236 ) ;
#62 = ADVANCED_FACE ( 'NONE', ( #63 ), #93, .T. ) ;
#63 = FACE_OUTER_BOUND ( 'NONE', #160, .T. ) ;
#64 = SHAPE_DEFINITION_REPRESENTATION ( #226, #178 ) ;
#65 = LINE ( 'NONE', #37, #44 ) ;
#66 = CARTESIAN_POINT ( 'NONE',  ( 0.000000000000000000, 0.000000000000000000, 0.000000000000000000 ) ) ;
#67 = DIRECTION ( 'NONE',  ( 1.000000000000000000, 0.000000000000000000, 0.000000000000000000 ) ) ;
#68 = CARTESIAN_POINT ( 'NONE',  ( 1.500000000000000000, 1.836970198721574002E-16, 1.000000000000000888 ) ) ;
#69 = PRODUCT_DEFINITION ( 'UNKNOWN', '', #25, #130 ) ;
#70 = ORIENTED_EDGE ( 'NONE', *, *, #3, .F. ) ;
#71 = FACE_OUTER_BOUND ( 'NONE', #41, .T. ) ;
#72 = DIRECTION ( 'NONE',  ( 0.000000000000000000, 0.000000000000000000, -1.000000000000000000 ) ) ;
#73 = AXIS2_PLACEMENT_3D ( 'NONE', #105, #159, #45 ) ;
#74 = LINE ( 'NONE', #54, #131 ) ;
#75 = CARTESIAN_POINT ( 'NONE',  ( 0.000000000000000000, 0.000000000000000000, 1.000000000000000888 ) ) ;
#76 = DIRECTION ( 'NONE',  ( 0.000000000000000000, 0.000000000000000000, -1.000000000000000000 ) ) ;
#77 = AXIS2_PLACEMENT_3D ( 'NONE', #23, #200, #215 ) ;
#78 = ORIENTED_EDGE ( 'NONE', *, *, #227, .F. ) ;
#79 = ORIENTED_EDGE ( 'NONE', *, *, #98, .T. ) ;
#80 = DIRECTION ( 'NONE',  ( 0.000000000000000000, 0.000000000000000000, 1.000000000000000000 ) ) ;
#81 = EDGE_CURVE ( 'NONE', #97, #141, #11, .T. ) ;
#82 = DIRECTION ( 'NONE',  ( 0.000000000000000000, 0.000000000000000000, -1.000000000000000000 ) ) ;
#83 = DIRECTION ( 'NONE',  ( 1.000000000000000000, 0.000000000000000000, 0.000000000000000000 ) ) ;
#84 = EDGE_CURVE ( 'NONE', #136, #243, #240, .T. ) ;
#85 = FACE_OUTER_BOUND ( 'NONE', #179, .T. ) ;
#86 = CIRCLE ( 'NONE', #229, 3.500000000000000000 ) ;
#87 = DIRECTION ( 'NONE',  ( 0.000000000000000000, 0.000000000000000000, -1.000000000000000000 ) ) ;
#88 = ORIENTED_EDGE ( 'NONE', *, *, #60, .T. ) ;
#89 = VERTEX_POINT ( 'NONE', #68 ) ;
#90 = DIRECTION ( 'NONE',  ( 0.000000000000000000, 0.000000000000000000, 1.000000000000000000 ) ) ;
#91 = CARTESIAN_POINT ( 'NONE',  ( -1.500000000000444311, 0.000000000000000000, 78.90000000000001990 ) ) ;
#92 = LINE ( 'NONE', #172, #153 ) ;
#93 = CONICAL_SURFACE ( 'NONE', #73, 1.400000000000012124, 0.7853981633974439491 ) ;
#94 = DIRECTION ( 'NONE',  ( 0.000000000000000000, 0.000000000000000000, -1.000000000000000000 ) ) ;
#95 = ORIENTED_EDGE ( 'NONE', *, *, #56, .T. ) ;
#96 = ORIENTED_EDGE ( 'NONE', *, *, #3, .T. ) ;
#97 = VERTEX_POINT ( 'NONE', #142 ) ;
#98 = EDGE_CURVE ( 'NONE', #141, #53, #183, .T. ) ;
#99 = CARTESIAN_POINT ( 'NONE',  ( -1.500000000000000222, 0.000000000000000000, 1.000000000000000888 ) ) ;
#100 = CARTESIAN_POINT ( 'NONE',  ( -4.440892098500626162E-13, 0.000000000000000000, 79.00000000000001421 ) ) ;
#101 = PLANE ( 'NONE',  #117 ) ;
#102 = ORIENTED_EDGE ( 'NONE', *, *, #81, .T. ) ;
#103 = DIRECTION ( 'NONE',  ( 1.000000000000000000, 0.000000000000000000, 0.000000000000000000 ) ) ;
#104 = AXIS2_PLACEMENT_3D ( 'NONE', #135, #94, #231 ) ;
#105 = CARTESIAN_POINT ( 'NONE',  ( -4.440892098500626162E-13, 0.000000000000000000, 79.00000000000001421 ) ) ;
#106 = FACE_OUTER_BOUND ( 'NONE', #21, .T. ) ;
#107 = PRESENTATION_LAYER_ASSIGNMENT (  '', '', ( #206 ) ) ;
#108 = ORIENTED_EDGE ( 'NONE', *, *, #12, .F. ) ;
#109 = DIRECTION ( 'NONE',  ( 0.000000000000000000, 0.000000000000000000, 1.000000000000000000 ) ) ;
#110 = EDGE_CURVE ( 'NONE', #125, #147, #196, .T. ) ;
#111 = DIRECTION ( 'NONE',  ( 0.000000000000000000, 0.000000000000000000, -1.000000000000000000 ) ) ;
#112 = DIRECTION ( 'NONE',  ( 0.7071067811865444641, 8.659560562354894648E-17, -0.7071067811865505703 ) ) ;
#113 = ORIENTED_EDGE ( 'NONE', *, *, #16, .F. ) ;
#114 = EDGE_CURVE ( 'NONE', #97, #15, #239, .T. ) ;
#115 = AXIS2_PLACEMENT_3D ( 'NONE', #202, #162, #122 ) ;
#116 = CARTESIAN_POINT ( 'NONE',  ( 0.000000000000000000, 0.000000000000000000, 1.000000000000000888 ) ) ;
#117 = AXIS2_PLACEMENT_3D ( 'NONE', #225, #187, #208 ) ;
#118 = DIRECTION ( 'NONE',  ( -0.000000000000000000, -0.000000000000000000, -1.000000000000000000 ) ) ;
#119 = MANIFOLD_SOLID_BREP ( 'Chamfer1', #235 ) ;
#120 = DIRECTION ( 'NONE',  ( 1.000000000000000000, 0.000000000000000000, 0.000000000000000000 ) ) ;
#121 = DIRECTION ( 'NONE',  ( 1.000000000000000000, 0.000000000000000000, 0.000000000000000000 ) ) ;
#122 = DIRECTION ( 'NONE',  ( 1.000000000000000000, 0.000000000000000000, 0.000000000000000000 ) ) ;
#123 = EDGE_CURVE ( 'NONE', #136, #125, #92, .T. ) ;
#124 = VECTOR ( 'NONE', #82, 1000.000000000000000 ) ;
#125 = VERTEX_POINT ( 'NONE', #230 ) ;
#126 =( NAMED_UNIT ( * ) PLANE_ANGLE_UNIT ( ) SI_UNIT ( $, .RADIAN. ) );
#127 = CIRCLE ( 'NONE', #31, 1.500000000000000222 ) ;
#128 = EDGE_LOOP ( 'NONE', ( #133, #146 ) ) ;
#129 = FACE_OUTER_BOUND ( 'NONE', #190, .T. ) ;
#130 = PRODUCT_DEFINITION_CONTEXT ( 'detailed design', #191, 'design' ) ;
#131 = VECTOR ( 'NONE', #247, 1000.000000000000000 ) ;
#132 = ADVANCED_FACE ( 'NONE', ( #171 ), #212, .T. ) ;
#133 = ORIENTED_EDGE ( 'NONE', *, *, #237, .F. ) ;
#134 = CIRCLE ( 'NONE', #214, 1.400000000000012124 ) ;
#135 = CARTESIAN_POINT ( 'NONE',  ( -4.440892098500626162E-13, 0.000000000000000000, 79.00000000000001421 ) ) ;
#136 = VERTEX_POINT ( 'NONE', #195 ) ;
#137 = CYLINDRICAL_SURFACE ( 'NONE', #104, 1.500000000000000222 ) ;
#138 = ORIENTED_EDGE ( 'NONE', *, *, #98, .F. ) ;
#139 = ORIENTED_EDGE ( 'NONE', *, *, #150, .T. ) ;
#140 = ADVANCED_FACE ( 'NONE', ( #19 ), #193, .T. ) ;
#141 = VERTEX_POINT ( 'NONE', #189 ) ;
#142 = CARTESIAN_POINT ( 'NONE',  ( -3.500000000000000000, 0.000000000000000000, 1.000000000000000888 ) ) ;
#143 = DIRECTION ( 'NONE',  ( 0.000000000000000000, 0.000000000000000000, 1.000000000000000000 ) ) ;
#144 = AXIS2_PLACEMENT_3D ( 'NONE', #75, #199, #151 ) ;
#145 = AXIS2_PLACEMENT_3D ( 'NONE', #250, #76, #210 ) ;
#146 = ORIENTED_EDGE ( 'NONE', *, *, #39, .F. ) ;
#147 = VERTEX_POINT ( 'NONE', #91 ) ;
#148 = AXIS2_PLACEMENT_3D ( 'NONE', #52, #109, #67 ) ;
#149 = CARTESIAN_POINT ( 'NONE',  ( 0.000000000000000000, 0.000000000000000000, 1.000000000000000888 ) ) ;
#150 = EDGE_CURVE ( 'NONE', #125, #89, #74, .T. ) ;
#151 = DIRECTION ( 'NONE',  ( -1.000000000000000000, 0.000000000000000000, 0.000000000000000000 ) ) ;
#152 = EDGE_LOOP ( 'NONE', ( #108, #252, #102, #79 ) ) ;
#153 = VECTOR ( 'NONE', #112, 1000.000000000000000 ) ;
#154 = FACE_OUTER_BOUND ( 'NONE', #211, .T. ) ;
#155 = AXIS2_PLACEMENT_3D ( 'NONE', #116, #24, #48 ) ;
#156 = SURFACE_STYLE_USAGE ( .BOTH. , #217 ) ;
#157 = ADVANCED_FACE ( 'NONE', ( #71 ), #192, .T. ) ;
#158 = ORIENTED_EDGE ( 'NONE', *, *, #39, .T. ) ;
#159 = DIRECTION ( 'NONE',  ( 0.000000000000000000, 0.000000000000000000, -1.000000000000000000 ) ) ;
#160 = EDGE_LOOP ( 'NONE', ( #9, #20, #40, #38 ) ) ;
#161 = ADVANCED_FACE ( 'NONE', ( #154 ), #137, .T. ) ;
#162 = DIRECTION ( 'NONE',  ( -0.000000000000000000, -0.000000000000000000, -1.000000000000000000 ) ) ;
#163 = AXIS2_PLACEMENT_3D ( 'NONE', #249, #72, #17 ) ;
#164 = AXIS2_PLACEMENT_3D ( 'NONE', #173, #111, #34 ) ;
#165 = AXIS2_PLACEMENT_3D ( 'NONE', #100, #245, #58 ) ;
#166 = APPLICATION_PROTOCOL_DEFINITION ( 'draft international standard', 'automotive_design', 1998, #191 ) ;
#167 = AXIS2_PLACEMENT_3D ( 'NONE', #244, #90, #121 ) ;
#168 = ORIENTED_EDGE ( 'NONE', *, *, #170, .F. ) ;
#169 = CARTESIAN_POINT ( 'NONE',  ( -3.500000000000000000, 0.000000000000000000, 1.000000000000000888 ) ) ;
#170 = EDGE_CURVE ( 'NONE', #147, #57, #175, .T. ) ;
#171 = FACE_OUTER_BOUND ( 'NONE', #224, .T. ) ;
#172 = CARTESIAN_POINT ( 'NONE',  ( 1.399999999999568034, 1.714505518806308936E-16, 79.00000000000001421 ) ) ;
#173 = CARTESIAN_POINT ( 'NONE',  ( -4.440892098500626162E-13, 0.000000000000000000, 79.00000000000001421 ) ) ;
#174 = ORIENTED_EDGE ( 'NONE', *, *, #123, .T. ) ;
#175 = LINE ( 'NONE', #242, #216 ) ;
#176 = ORIENTED_EDGE ( 'NONE', *, *, #81, .F. ) ;
#177 = ADVANCED_FACE ( 'NONE', ( #106 ), #49, .T. ) ;
#178 = ADVANCED_BREP_SHAPE_REPRESENTATION ( '0002', ( #119, #148 ), #4 ) ;
#179 = EDGE_LOOP ( 'NONE', ( #198, #96 ) ) ;
#180 = DIRECTION ( 'NONE',  ( 1.000000000000000000, 0.000000000000000000, 0.000000000000000000 ) ) ;
#181 = LINE ( 'NONE', #234, #22 ) ;
#182 =( GEOMETRIC_REPRESENTATION_CONTEXT ( 3 ) GLOBAL_UNCERTAINTY_ASSIGNED_CONTEXT ( ( #188 ) ) GLOBAL_UNIT_ASSIGNED_CONTEXT ( ( #209, #207, #14 ) ) REPRESENTATION_CONTEXT ( 'NONE', 'WORKASPACE' ) );
#183 = CIRCLE ( 'NONE', #77, 3.500000000000000000 ) ;
#184 = CARTESIAN_POINT ( 'NONE',  ( 3.500000000000000000, 4.286263797015736595E-16, 1.000000000000000888 ) ) ;
#185 = PRODUCT_CONTEXT ( 'NONE', #36, 'mechanical' ) ;
#186 = DIRECTION ( 'NONE',  ( 0.000000000000000000, 0.000000000000000000, -1.000000000000000000 ) ) ;
#187 = DIRECTION ( 'NONE',  ( 0.000000000000000000, 0.000000000000000000, 1.000000000000000000 ) ) ;
#188 = UNCERTAINTY_MEASURE_WITH_UNIT (LENGTH_MEASURE( 1.000000000000000082E-05 ), #209, 'distance_accuracy_value', 'NONE');
#189 = CARTESIAN_POINT ( 'NONE',  ( -3.500000000000000000, 0.000000000000000000, 0.000000000000000000 ) ) ;
#190 = EDGE_LOOP ( 'NONE', ( #138, #113 ) ) ;
#191 = APPLICATION_CONTEXT ( 'automotive_design' ) ;
#192 = CYLINDRICAL_SURFACE ( 'NONE', #163, 3.500000000000000000 ) ;
#193 = CYLINDRICAL_SURFACE ( 'NONE', #164, 1.500000000000000222 ) ;
#194 = ORIENTED_EDGE ( 'NONE', *, *, #110, .T. ) ;
#195 = CARTESIAN_POINT ( 'NONE',  ( 1.399999999999568034, 1.775737858763669558E-16, 79.00000000000001421 ) ) ;
#196 = CIRCLE ( 'NONE', #218, 1.500000000000000222 ) ;
#197 = DIRECTION ( 'NONE',  ( 0.000000000000000000, 0.000000000000000000, 1.000000000000000000 ) ) ;
#198 = ORIENTED_EDGE ( 'NONE', *, *, #114, .T. ) ;
#199 = DIRECTION ( 'NONE',  ( 0.000000000000000000, 0.000000000000000000, -1.000000000000000000 ) ) ;
#200 = DIRECTION ( 'NONE',  ( 0.000000000000000000, 0.000000000000000000, 1.000000000000000000 ) ) ;
#201 = FACE_BOUND ( 'NONE', #128, .T. ) ;
#202 = CARTESIAN_POINT ( 'NONE',  ( -4.440892098500626162E-13, 0.000000000000000000, 78.90000000000001990 ) ) ;
#203 = ADVANCED_FACE ( 'NONE', ( #29 ), #47, .T. ) ;
#204 = UNCERTAINTY_MEASURE_WITH_UNIT (LENGTH_MEASURE( 1.000000000000000082E-05 ), #28, 'distance_accuracy_value', 'NONE');
#205 = ORIENTED_EDGE ( 'NONE', *, *, #170, .T. ) ;
#206 = STYLED_ITEM ( 'NONE', ( #228 ), #119 ) ;
#207 =( NAMED_UNIT ( * ) PLANE_ANGLE_UNIT ( ) SI_UNIT ( $, .RADIAN. ) );
#208 = DIRECTION ( 'NONE',  ( 1.000000000000000000, 0.000000000000000000, 0.000000000000000000 ) ) ;
#209 =( LENGTH_UNIT ( ) NAMED_UNIT ( * ) SI_UNIT ( .MILLI., .METRE. ) );
#210 = DIRECTION ( 'NONE',  ( -1.000000000000000000, 0.000000000000000000, 0.000000000000000000 ) ) ;
#211 = EDGE_LOOP ( 'NONE', ( #32, #194, #205, #254 ) ) ;
#212 = CONICAL_SURFACE ( 'NONE', #145, 1.400000000000012124, 0.7853981633974439491 ) ;
#213 = EDGE_LOOP ( 'NONE', ( #88, #139, #158, #168 ) ) ;
#214 = AXIS2_PLACEMENT_3D ( 'NONE', #221, #50, #238 ) ;
#215 = DIRECTION ( 'NONE',  ( 1.000000000000000000, 0.000000000000000000, 0.000000000000000000 ) ) ;
#216 = VECTOR ( 'NONE', #87, 1000.000000000000000 ) ;
#217 = SURFACE_SIDE_STYLE ('',( #61 ) ) ;
#218 = AXIS2_PLACEMENT_3D ( 'NONE', #51, #118, #43 ) ;
#219 = DIRECTION ( 'NONE',  ( 0.000000000000000000, 0.000000000000000000, 1.000000000000000000 ) ) ;
#220 = DIRECTION ( 'NONE',  ( 1.000000000000000000, 0.000000000000000000, 0.000000000000000000 ) ) ;
#221 = CARTESIAN_POINT ( 'NONE',  ( -4.440892098500626162E-13, 0.000000000000000000, 79.00000000000001421 ) ) ;
#222 = ADVANCED_FACE ( 'NONE', ( #201, #85 ), #101, .T. ) ;
#223 = APPLICATION_PROTOCOL_DEFINITION ( 'draft international standard', 'automotive_design', 1998, #36 ) ;
#224 = EDGE_LOOP ( 'NONE', ( #255, #174, #30, #78 ) ) ;
#225 = CARTESIAN_POINT ( 'NONE',  ( 0.000000000000000000, 0.000000000000000000, 1.000000000000000888 ) ) ;
#226 = PRODUCT_DEFINITION_SHAPE ( 'NONE', 'NONE',  #69 ) ;
#227 = EDGE_CURVE ( 'NONE', #243, #147, #65, .T. ) ;
#228 = PRESENTATION_STYLE_ASSIGNMENT (( #156 ) ) ;
#229 = AXIS2_PLACEMENT_3D ( 'NONE', #1, #80, #220 ) ;
#230 = CARTESIAN_POINT ( 'NONE',  ( 1.499999999999556133, 1.836970198721030181E-16, 78.90000000000001990 ) ) ;
#231 = DIRECTION ( 'NONE',  ( -1.000000000000000000, 0.000000000000000000, 0.000000000000000000 ) ) ;
#232 = ORIENTED_EDGE ( 'NONE', *, *, #84, .T. ) ;
#233 = ORIENTED_EDGE ( 'NONE', *, *, #12, .T. ) ;
#234 = CARTESIAN_POINT ( 'NONE',  ( 3.500000000000000000, 4.286263797015736595E-16, 1.000000000000000888 ) ) ;
#235 = CLOSED_SHELL ( 'NONE', ( #132, #140, #157, #203, #222, #251, #161, #177, #62 ) ) ;
#236 = FILL_AREA_STYLE ('',( #27 ) ) ;
#237 = EDGE_CURVE ( 'NONE', #57, #89, #127, .T. ) ;
#238 = DIRECTION ( 'NONE',  ( 1.000000000000000000, 0.000000000000000000, 0.000000000000000000 ) ) ;
#239 = CIRCLE ( 'NONE', #6, 3.500000000000000000 ) ;
#240 = CIRCLE ( 'NONE', #165, 1.400000000000012124 ) ;
#241 = DIRECTION ( 'NONE',  ( -0.7071067811865444641, 0.000000000000000000, -0.7071067811865505703 ) ) ;
#242 = CARTESIAN_POINT ( 'NONE',  ( -1.500000000000444311, 0.000000000000000000, 79.00000000000001421 ) ) ;
#243 = VERTEX_POINT ( 'NONE', #2 ) ;
#244 = CARTESIAN_POINT ( 'NONE',  ( -4.440892098500626162E-13, 0.000000000000000000, 79.00000000000001421 ) ) ;
#245 = DIRECTION ( 'NONE',  ( 0.000000000000000000, 0.000000000000000000, 1.000000000000000000 ) ) ;
#246 = PLANE ( 'NONE',  #18 ) ;
#247 = DIRECTION ( 'NONE',  ( 0.000000000000000000, 0.000000000000000000, -1.000000000000000000 ) ) ;
#248 = CIRCLE ( 'NONE', #59, 3.500000000000000000 ) ;
#249 = CARTESIAN_POINT ( 'NONE',  ( 0.000000000000000000, 0.000000000000000000, 1.000000000000000888 ) ) ;
#250 = CARTESIAN_POINT ( 'NONE',  ( -4.440892098500626162E-13, 0.000000000000000000, 79.00000000000001421 ) ) ;
#251 = ADVANCED_FACE ( 'NONE', ( #129 ), #246, .F. ) ;
#252 = ORIENTED_EDGE ( 'NONE', *, *, #114, .F. ) ;
#253 = MECHANICAL_DESIGN_GEOMETRIC_PRESENTATION_REPRESENTATION (  '', ( #206 ), #182 ) ;
#254 = ORIENTED_EDGE ( 'NONE', *, *, #237, .T. ) ;
#255 = ORIENTED_EDGE ( 'NONE', *, *, #84, .F. ) ;
ENDSEC;
END-ISO-10303-21;
